<svg xmlns="http://www.w3.org/2000/svg" xmlns:xlink="http://www.w3.org/1999/xlink" xmlns:lucid="lucid" width="2860.67" height="1505.13"><g transform="translate(100.6748340101683 -14.873631942318859)" lucid:page-tab-id=".Q4MUjXso07N"><path d="M360 42.87c0-4.4 3.58-8 8-8h1102.74c4.42 0 8 3.6 8 8v38.88c0 4.42-3.58 8-8 8H368c-4.42 0-8-3.58-8-8z" stroke="#000" stroke-opacity="0" stroke-width="2" fill="#fff" fill-opacity="0"/><use xlink:href="#a" transform="matrix(1,0,0,1,380,34.87363194231886) translate(73.53363281250006 38.03401041666666)"/><use xlink:href="#b" transform="matrix(1,0,0,1,380,34.87363194231886) translate(349.5785546875 38.03401041666666)"/><use xlink:href="#c" transform="matrix(1,0,0,1,380,34.87363194231886) translate(386.3845442708333 38.03401041666666)"/><use xlink:href="#d" transform="matrix(1,0,0,1,380,34.87363194231886) translate(459.99652343749995 38.03401041666666)"/><use xlink:href="#e" transform="matrix(1,0,0,1,380,34.87363194231886) translate(552.0114973958332 38.03401041666666)"/><use xlink:href="#f" transform="matrix(1,0,0,1,380,34.87363194231886) translate(699.2354557291666 38.03401041666666)"/><use xlink:href="#g" transform="matrix(1,0,0,1,380,34.87363194231886) translate(736.0414453125 38.03401041666666)"/><path d="M360 97.75c0-4.42 3.58-8 8-8h1104c4.42 0 8 3.58 8 8v9.12c0 4.42-3.58 8-8 8H368c-4.42 0-8-3.58-8-8z" stroke="#000" stroke-opacity="0" stroke-width="2" fill="#fff" fill-opacity="0"/><use xlink:href="#h" transform="matrix(1,0,0,1,380.00000000000045,89.74726388463765) translate(187.45208984374995 20.924599247685183)"/><use xlink:href="#i" transform="matrix(1,0,0,1,380.00000000000045,89.74726388463765) translate(279.71154803240734 20.924599247685183)"/><use xlink:href="#j" transform="matrix(1,0,0,1,380.00000000000045,89.74726388463765) translate(371.9710062210648 20.924599247685183)"/><use xlink:href="#k" transform="matrix(1,0,0,1,380.00000000000045,89.74726388463765) translate(516.9501548032407 20.924599247685183)"/><use xlink:href="#l" transform="matrix(1,0,0,1,380.00000000000045,89.74726388463765) translate(543.31 20.924599247685183)"/><use xlink:href="#m" transform="matrix(1,0,0,1,380.00000000000045,89.74726388463765) translate(622.3895355902778 20.924599247685183)"/><use xlink:href="#n" transform="matrix(1,0,0,1,380.00000000000045,89.74726388463765) translate(780.5486067708332 20.924599247685183)"/><path d="M398.57 168c0-4.42 3.58-8 8-8H2526.2c4.43 0 8 3.58 8 8v1324c0 4.42-3.57 8-8 8H406.58c-4.42 0-8-3.58-8-8z" stroke="#0c7cba" stroke-width="5" fill-opacity="0"/><path d="M2708.66 827.4c0 10.3-8.36 18.65-18.66 18.65s-18.66-8.36-18.66-18.66c0-10.32 8.36-18.67 18.66-18.67s18.66 8.35 18.66 18.66z" stroke="#333" fill="#fff"/><path d="M2690 846.05v44.24c0 4.4 2.3 10.74 5.14 14.13L2740 958m-50-59.7l-50 59.7m0-93.3h100" stroke="#333" fill="none"/><path d="M2640 816.73c0-4.42 3.58-8 8-8h84c4.42 0 8 3.58 8 8V972c0 4.42-3.58 8-8 8h-84c-4.42 0-8-3.58-8-8z" fill="none"/><use xlink:href="#o" transform="matrix(1,0,0,1,2560,958.0000000000001) translate(87.29296875 16.396484375)"/><path d="M-80.67 1176.1c0-4.42 3.58-8 8-8h430.54c4.42 0 8 3.58 8 8v69.07c0 4.42-3.58 8-8 8H-72.67c-4.42 0-8-3.58-8-8z" stroke="#000" stroke-opacity="0" fill="#fff" fill-opacity="0"/><use xlink:href="#p" transform="matrix(1,0,0,1,-60.6748340101683,1168.0952380952378) translate(149.49121093750003 48.396484375)"/><use xlink:href="#q" transform="matrix(1,0,0,1,-60.6748340101683,1168.0952380952378) translate(192.6982421875 48.396484375)"/><path d="M631.55 840.63c0 35.25-34.77 63.8-77.66 63.8-42.9 0-77.67-28.55-77.67-63.8 0-35.24 34.77-63.8 77.66-63.8 42.88 0 77.65 28.56 77.65 63.8z" stroke="#333" fill="#fff"/><use xlink:href="#r" transform="matrix(1,0,0,1,499.52659597872315,802.3492063492068) translate(5.89208984375 34.896484375)"/><use xlink:href="#s" transform="matrix(1,0,0,1,499.52659597872315,802.3492063492068) translate(59.90087890625 34.896484375)"/><use xlink:href="#t" transform="matrix(1,0,0,1,499.52659597872315,802.3492063492068) translate(32.896484375 52.896484375)"/><path d="M942.2 425.87c0 29.37-26.1 53.18-58.26 53.18-32.17 0-58.24-23.8-58.24-53.18 0-29.36 26.07-53.17 58.24-53.17s58.25 23.8 58.25 53.17z" stroke="#333" fill="#fff"/><use xlink:href="#u" transform="matrix(1,0,0,1,843.1702129999996,393.9682539682538) translate(24.79736328125 28.396484375)"/><use xlink:href="#v" transform="matrix(1,0,0,1,843.1702129999996,393.9682539682538) translate(19.396484375 46.396484375)"/><path d="M942.2 840.63c0 29.37-26.1 53.18-58.26 53.18-32.17 0-58.24-23.8-58.24-53.17 0-29.36 26.07-53.17 58.24-53.17s58.25 23.8 58.25 53.17z" stroke="#333" fill="#fff"/><use xlink:href="#w" transform="matrix(1,0,0,1,843.1702129999996,808.7301587301586) translate(19.396484375 19.396484375)"/><use xlink:href="#x" transform="matrix(1,0,0,1,843.1702129999996,808.7301587301586) translate(-2.20703125 37.396484375)"/><use xlink:href="#y" transform="matrix(1,0,0,1,843.1702129999996,808.7301587301586) translate(19.396484375 55.396484375)"/><path d="M612.13 1190.26c0 23.5-26.07 42.54-58.24 42.54-32.18 0-58.26-19.05-58.26-42.54 0-23.5 26.08-42.54 58.25-42.54 32.16 0 58.23 19.04 58.23 42.54z" stroke="#333" fill="#fff"/><use xlink:href="#z" transform="matrix(1,0,0,1,513.1170215106381,1164.734126984127) translate(19.396484375 22.396484375)"/><use xlink:href="#v" transform="matrix(1,0,0,1,513.1170215106381,1164.734126984127) translate(19.396484375 40.396484375)"/><path d="M554.4 775.83h-1v-4.9h1zm0-9.8h-1v-9.8h1zm0-14.7h-1v-9.8h1zm0-14.7h-1v-9.78h1zm0-14.68h-1v-9.8h1zm0-14.7h-1v-9.8h1zm0-14.7h-1v-9.78h1zm0-14.68h-1v-9.8h1zm0-14.7h-1v-9.8h1zm0-14.7h-1v-9.78h1zm0-14.68h-1V624h1zm0-14.7h-1v-9.8h1zm0-14.7h-1v-9.8h1zm0-14.7h-1v-9.8h1zm0-14.7h-1v-9.78h1zm0-14.68h-1v-9.8h1zm0-14.7h-1v-9.8h1zm0-14.7h-1v-9.78h1zm0-14.68h-1v-9.8h1zm0-14.7h-1v-9.8h1zm0-14.7h-1v-9.78h1zm0-14.68h-1v-9.8h1zm0-14.7h-1v-9.8h1zm0-19.55v4.87h-1v-4.93l.23-1.86h1zm107.75-11.53h-10.13v-1h10.13zm15.2 0h-10.13v-1h10.13zm15.2 0h-10.13v-1h10.13zm15.2 0h-10.13v-1h10.13zm15.2 0h-10.13v-1h10.13zm15.2 0h-10.13v-1h10.13zm15.2 0h-10.13v-1h10.13zm15.2 0h-10.13v-1h10.13zm15.2 0h-10.13v-1h10.13zm15.2 0h-10.13v-1h10.13zm15.2 0h-10.13v-1h10.13zm10.14 0h-5.08v-1h5.07z" fill="#333"/><path d="M554.4 776.34h-1v-.53h1zM825.2 425.87l-17.95 10.6-.5-.85 16.48-9.75-16.48-9.75.5-.86z" fill="#333"/><use xlink:href="#A" transform="matrix(1,0,0,1,504.01018034573315,415.7619047619046) translate(0.0049999999999954525 16.173828125)"/><use xlink:href="#B" transform="matrix(1,0,0,1,504.01018034573315,415.7619047619046) translate(12.140308159722217 16.173828125)"/><path d="M632.55 840.63h4.8m4.8 0h9.6m4.8 0h9.6m4.78 0h9.6m4.8 0h9.6m4.8 0h9.6m4.8 0h9.81m5.02 0H739m5 0h10.04m5.02 0h10.03m5 0h10.05m5 0h10.05m5.02 0h10.03m5.02 0h5.02" stroke="#333" fill="none"/><path d="M632.56 841.13h-.53l.02-.5v-.5h.5z" fill="#333"/><path d="M807 850.82l17.2-10.2-17.2-10.17" stroke="#333" fill="none"/><use xlink:href="#C" transform="matrix(1,0,0,1,649.2605108716446,816.412698412699) translate(0.0049999999999954525 16.173828125)"/><path d="M554.4 1146.3h-1v-5h1zm0-10.03h-1v-10.03h1zm0-15.05h-1v-10.04h1zm0-15.05h-1v-10.04h1zm0-15.06h-1v-10.03h1zm0-15.04h-1v-10.04h1zm0-15.06h-1v-10.03h1zm0-15.05h-1v-10.04h1zm0-15.06h-1v-10.04h1zm0-15.06h-1v-.98h1zm0-21.2h-1v-3.9h1zm0-8.9h-1V975.7h1zm0-15.06h-1v-10.04h1zm0-15.06h-1V945.6h1zm0-15.05h-1v-10.04h1zm0-15.05h-1v-10.04h1zm0-15.06h-1v-5.02h1z" fill="#333"/><path d="M553.88 904.94h.5v.52h-1v-.53zM564.5 1129.28l-10.6 17.94-10.62-17.94.86-.5 9.75 16.47 9.74-16.48z" fill="#333"/><use xlink:href="#C" transform="matrix(1,0,0,1,487.14410322791053,994.6379181877571) translate(0.0049999999999954525 16.173828125)"/><path d="M621.84 1393.17c0 29.37-30.42 53.18-67.95 53.18-37.54 0-67.96-23.8-67.96-53.18 0-29.36 30.42-53.17 67.95-53.17 37.52 0 67.94 23.8 67.94 53.17z" stroke="#333" fill="#fff"/><use xlink:href="#D" transform="matrix(1,0,0,1,506.32180874468065,1361.269841269841) translate(26.396484375 19.396484375)"/><use xlink:href="#E" transform="matrix(1,0,0,1,506.32180874468065,1361.269841269841) translate(26.396484375 37.396484375)"/><use xlink:href="#F" transform="matrix(1,0,0,1,506.32180874468065,1361.269841269841) translate(4.79296875 55.396484375)"/><path d="M554.4 1339h-1v-5h1zm0-9.98h-1v-9.98h1zm0-14.97h-1v-9.98h1zm0-14.97h-1v-9.98h1zm0-14.97h-1v-1.87h1zm0-22.1h-1v-2.84h1zm0-7.83h-1v-9.98h1zm0-14.97h-1v-5h1z" fill="#333"/><path d="M564.5 1251.24l-.86.5-9.75-16.48-9.76 16.5-.86-.52 10.6-17.94zM554.4 1339.52l-.5-.02h-.5v-.5h1z" fill="#333"/><use xlink:href="#G" transform="matrix(1,0,0,1,493.2117573077717,1262.0083232330508) translate(0.005000000000002558 16.173828125)"/><path d="M1330.48 582.67c0 35.24-34.77 63.8-77.66 63.8-42.9 0-77.66-28.56-77.66-63.8 0-35.24 34.77-63.8 77.66-63.8 42.9 0 77.66 28.56 77.66 63.8z" stroke="#333" fill="#fff"/><use xlink:href="#H" transform="matrix(1,0,0,1,1198.4627661914892,544.3851852391693) translate(5.89208984375 43.896484375)"/><use xlink:href="#v" transform="matrix(1,0,0,1,1198.4627661914892,544.3851852391693) translate(59.90087890625 43.896484375)"/><path d="M1253.32 517.45h-1v-5.3h1zm0-10.6h-1v-10.62h1zm0-15.92h-1v-10.6h1zm0-15.92h-1v-10.6h1zm0-15.9h-1v-10.62h1zm-.42-24.47l.42 3.2v5.35h-1v-5.27l-.4-3-1.16-2.84.92-.38zm-8.83-8.84l2.94 1.2-.38.94-2.8-1.17-3.03-.4h-4.94v-1h5zm-295.92.57h-4.96v-1h4.95zm14.88 0h-9.92v-1h9.93zm14.88 0H968v-1h9.9zm14.9 0h-9.93v-1h9.92zm14.87 0h-9.92v-1h9.92zm14.9 0h-9.93v-1h9.92zm14.87 0h-9.92v-1h9.92zm9.18 0h-4.22v-1h4.22zm154.52 0h-9.92v-1h9.92zm14.88 0h-9.92v-1h9.92zm14.88 0h-9.92v-1h9.92zm-44.64 0h-6.15v-1h6.16z" fill="#333"/><path d="M943.2 426.37h-.53l.02-.5-.02-.5h.52zM1263.44 500.42l-10.62 17.94-10.6-17.94.85-.5 9.75 16.48 9.75-16.5z" fill="#333"/><use xlink:href="#C" transform="matrix(1,0,0,1,1046.622648194451,415.7619047619046) translate(0.0049999999999954525 16.173828125)"/><path d="M884.44 786.46h-1v-4.92h1zm0-9.84h-1v-9.83h1zm0-14.75h-1v-9.83h1zm0-14.75h-1v-9.84h1zm0-14.75h-1v-9.84h1zm0-14.76h-1v-9.82h1zm0-14.74h-1v-9.84h1zm0-14.75h-1v-9.83h1zm0-14.75h-1v-9.83h1zm0-14.75h-1v-9.83h1zm0-14.75h-1V634h1zm0-14.76h-1v-9.84h1zm0-14.76h-1v-9.83h1zm0-19.64v4.9h-1v-4.96l.24-1.86h1zm133.35-11.53h-9.76v-1h9.75zm14.6 0h-9.74v-1h9.75zm14.63 0h-9.74v-1h9.73zm14.63 0h-9.75v-1h9.76zm14.62 0h-9.75v-1h9.75zm14.62 0h-9.75v-1h9.75zm14.62 0h-9.75v-1h9.75zm14.62 0h-9.75v-1h9.74zm14.62 0h-9.74v-1h9.74zm14.63 0h-9.76v-1h9.75zm14.6 0h-9.74v-1h9.75zm9.76 0h-4.88v-1h4.88zm-170.6 0h-9.26v-1h9.27zM884.44 786.98l-.5-.02h-.5v-.5h1z" fill="#333"/><path d="M1174.66 582.67l-17.94 10.6-.5-.85 16.48-9.75-16.5-9.75.52-.86z" fill="#333"/><use xlink:href="#C" transform="matrix(1,0,0,1,860.4142878538835,572.5597884137726) translate(0.0049999999999954525 16.173828125)"/><path d="M1136.34 952.3c0 26.43-26.08 47.86-58.25 47.86-32.18 0-58.25-21.43-58.25-47.86s26.07-47.86 58.24-47.86c32.16 0 58.24 21.43 58.24 47.86z" stroke="#333" fill="#fff"/><use xlink:href="#I" transform="matrix(1,0,0,1,1037.3191491702125,923.5873015873012) translate(3.19384765625 25.396484375)"/><use xlink:href="#J" transform="matrix(1,0,0,1,1037.3191491702125,923.5873015873012) translate(8.5947265625 43.396484375)"/><path d="M1311.07 952.3c0 26.43-26.08 47.86-58.25 47.86-32.16 0-58.24-21.43-58.24-47.86s26.08-47.86 58.24-47.86c32.17 0 58.25 21.43 58.25 47.86z" stroke="#333" fill="#fff"/><use xlink:href="#I" transform="matrix(1,0,0,1,1212.053191723404,923.5873015873012) translate(3.19384765625 16.396484375)"/><use xlink:href="#K" transform="matrix(1,0,0,1,1212.053191723404,923.5873015873012) translate(13.99560546875 34.396484375)"/><use xlink:href="#L" transform="matrix(1,0,0,1,1212.053191723404,923.5873015873012) translate(-2.20703125 52.396484375)"/><path d="M1078.6 903.44h-1v-4.9h1zm0-9.8h-1v-9.8h1zm0-14.7h-1v-.13h1zm0-18.13h-1v-6.35h1zm0-11.25h-1v-9.8h1zm0-14.7h-1v-9.8h1zm0-14.7h-1v-9.8h1zm0-14.7h-1v-9.8h1zm1.55-25.4l-1.16 2.82-.4 3v4.88h-1v-4.93l.4-3.2 1.23-2.95zm14.96-5.7h-4.98l-3 .4-2.84 1.17-.38-.92 2.95-1.23 3.2-.42h5.06zm15.1 0h-10.06v-1h10.05zm15.06 0h-10.05v-1h10.06zm15.08 0h-10.05v-1h10.04zm15.07 0h-10.04v-1h10.05zm15.08 0h-10.05v-1h10.05zm15.08 0h-10.05v-1h10.06zm15.07 0h-10.05v-1h10.05zm15.07 0h-10.05v-1h10.05zm15.08 0h-10.05v-1h10.05zm16.23-1.64l-2.93 1.23-3.2.42h-5.07v-1h5l3-.4 2.82-1.16zm6.32-10.82l-.42 3.22-1.22 2.94-.92-.38 1.17-2.82.4-3.02v-4.72h1zm0-9.52h-1v-9.5h1zm0-14.25h-1v-9.5h1zm0-14.24h-1v-9.5h1zm0-14.24h-1v-9.5h1zm0-14.25h-1v-9.5h1zm0-14.24h-1v-9.5h1zm0-14.25h-1v-9.5h1zm0-14.24h-1v-4.75h1zM1078.6 903.97l-.5-.03h-.5v-.5h1z" fill="#333"/><path d="M1263.44 664.92l-.87.5-9.75-16.48-9.75 16.5-.86-.52 10.62-17.94z" fill="#333"/><use xlink:href="#M" transform="matrix(1,0,0,1,1024.0816367034572,860.8126555305688) translate(0.005000000000002558 14.396484375)"/><path d="M1253.32 903.44h-1v-5h1zm0-10.02h-1V883.4h1zm0-15.03h-1v-1.47h1zm0-19.47h-1v-5.6h1zm0-10.6h-1V838.3h1zm0-15.04h-1v-10.03h1zm0-15.04h-1v-10.02h1zm0-15.03h-1V793.2h1zm0-15.04h-1v-10.03h1zm0-15.04h-1v-10.02h1zm0-15.03h-1V748.1h1zm0-15.03h-1v-10.03h1zm0-15.04h-1v-10.02h1zm0-15.03h-1V703h1zm0-15.03h-1v-10.02h1zm0-15.03h-1v-10.03h1zm0-15.04h-1V657.9h1zm0-15.03h-1v-5h1zM1253.32 903.97l-.5-.03h-.5v-.5h1z" fill="#333"/><path d="M1263.44 664.92l-.87.5-9.75-16.48-9.75 16.5-.86-.52 10.62-17.94z" fill="#333"/><use xlink:href="#M" transform="matrix(1,0,0,1,1198.8156792566488,858.9267323902411) translate(0.005000000000002558 14.396484375)"/><path d="M1505.22 946.98c0 23.5-30.43 42.54-67.95 42.54-37.53 0-67.96-19.04-67.96-42.54s30.44-42.54 67.97-42.54c37.52 0 67.95 19.05 67.95 42.54z" stroke="#333" fill="#fff"/><use xlink:href="#N" transform="matrix(1,0,0,1,1389.699468319149,921.4603174603172) translate(26.396484375 31.396484375)"/><path d="M1437.77 903.44h-1v-4.77h1zm0-9.55h-1v-9.56h1zm0-29.13h-1v-9.08h1zm0-13.86h-1v-9.54h1zm0-14.32h-1v-9.55h1zm0-14.32h-1v-9.56h1zm0-14.33h-1v-9.55h1zm-.42-22.35l.42 3.2v4.82h-1v-4.74l-.4-3.02-1.17-2.8.93-.4zm-8.84-8.83l2.96 1.22-.4.92-2.8-1.18-3.03-.4h-4.8v-1h4.87zm-12.9.58h-9.66v-1h9.66zm-14.5 0h-9.66v-1h9.66zm-14.5 0h-9.66v-1h9.66zm-14.5 0h-9.66v-1h9.67zm-14.5 0h-9.66v-1h9.67zm-14.5 0h-9.65v-1h9.66zm-14.5 0h-9.65v-1h9.66zm-14.5 0h-9.65v-1h9.66zm-14.48 0h-9.67v-1h9.67zm-14.5 0h-9.67v-1h9.67zm-22.32-1.4l3.02.4h4.8v1h-4.86l-3.22-.43-2.93-1.2.4-.94zm-8.5-11.14l.38 3 1.18 2.83-.93.4-1.22-2.96-.4-3.2v-4.92h1zm0-9.72h-1v-9.75h1zm0-14.62h-1v-9.74h1zm0-14.62h-1v-9.74h1zm0-14.62h-1v-9.74h1zm0-14.6h-1v-9.76h1zm0-14.63h-1v-9.76h1zm0-14.63h-1v-9.75h1zm0-14.62h-1v-4.87h1zM1437.77 903.96l-.5-.02h-.5v-.5h1z" fill="#333"/><path d="M1264.4 664.9l-.86.52-9.75-16.5-9.76 16.5-.86-.5 10.6-17.95z" fill="#333"/><use xlink:href="#M" transform="matrix(1,0,0,1,1383.257168618351,864.767986164335) translate(0.005000000000002558 14.396484375)"/><path d="M2003.25 946.98c0 29.37-26.08 53.18-58.24 53.18-32.16 0-58.24-23.8-58.24-53.18 0-29.36 26.08-53.17 58.25-53.17s58.25 23.82 58.25 53.18z" stroke="#333" fill="#fff"/><use xlink:href="#O" transform="matrix(1,0,0,1,1904.2340427872343,915.0793650793648) translate(3.19384765625 37.396484375)"/><path d="M1945.5 892.8h-1v-4.96h1zm0-9.93h-1v-9.94h1zm0-14.9h-1v-9.94h1zm0-14.9h-1v-9.95h1zm0-14.92h-1v-9.94h1zm0-14.9h-1v-9.94h1zm0-14.9h-1v-9.95h1zm0-14.92h-1v-9.94h1zm0-14.9h-1v-9.4h1zm0-29.82h-1v-9.93h1zm0-14.9h-1v-9.94h1zm0-14.9h-1v-9.94h1zm0-14.9h-1v-9.95h1zm0-14.92h-1v-9.94h1zm0-14.9h-1v-9.94h1zm0-14.9h-1v-9.95h1zm0-14.92h-1v-9.94h1zm0-14.9h-1v-9.94h1zm0-14.9h-1v-9.95h1zm-.42-23.13l.43 3.2v5h-1v-4.93l-.4-3-1.16-2.83.93-.38zm-8.83-8.84l2.95 1.22-.4.92-2.8-1.17-3.03-.4H1928v-1h5.04zm-13.26.57h-10.03v-1H1923zm-15.04 0h-10.02v-1h10.02zm-15.03 0h-10.02v-1h10.03zm-15.03 0h-10.02v-1h10.02zm-15.02 0h-10.02v-1h10.02zm-15.03 0h-10.02v-1h10.02zm-15.03 0h-10.02v-1h10.02zm-15.03 0h-10.03v-1h10.02zm-15.04 0h-10v-1h10zm-15.02 0h-10.02v-1h10.02zm-15.03 0h-10v-1h10zm-15.02 0h-10.02v-1h10.02zm-15.03 0h-10.02v-1h10.02zm-15.02 0h-10.02v-1h10.03zm-15.03 0h-10.02v-1h10.02zm-15.03 0h-10.02v-1h10.02zm-15.03 0h-10.02v-1h10.02zm-15.03 0h-10v-1h10zm-15 0h-10.03v-1h10.02zm-15.04 0h-10.02v-1h10.02zm-15.03 0h-10.02v-1h10.03zm-15.03 0h-10.02v-1h10.02zm-15.02 0h-10.02v-1h10.02zm-15.03 0h-10.02v-1h10.02zm-15.03 0h-10.02v-1h10.02zm-15.03 0h-10.03v-1h10.02zm-15.04 0h-10v-1h10zm-15.02 0h-10.02v-1h10.02zm-15.03 0h-10v-1h10zm-15.02 0h-10.02v-1h10.02zm-15.03 0h-10.02v-1h10.02zm-15.03 0h-10v-1h10zm-15.02 0h-10.02v-1h10.02zm-15.03 0h-10.02v-1h10.02zm-15.03 0h-10.02v-1h10.02zm-15.03 0h-10v-1h10zm-15 0h-10.03v-1H1382zm-15.04 0h-10.02v-1h10.02zm-15.03 0h-10.02v-1h10.03zm-15.03 0h-5v-1h5zM1945.5 893.33l-.5-.02-.5.02v-.52h1z" fill="#333"/><path d="M1349.44 572.92l-16.5 9.75 16.5 9.75-.5.86-17.96-10.6 17.95-10.62z" fill="#333"/><use xlink:href="#P" transform="matrix(1,0,0,1,1890.996530320479,751.1334485310663) translate(0.005000000000002558 14.396484375)"/><path d="M1699.37 946.98c0 35.25-30.43 63.8-67.96 63.8-37.5 0-67.94-28.55-67.94-63.8 0-35.24 30.43-63.8 67.95-63.8 37.54 0 67.97 28.56 67.97 63.8z" stroke="#333" fill="#fff"/><use xlink:href="#Q" transform="matrix(1,0,0,1,1583.8484044893619,908.6984126984124) translate(26.396484375 14.396484375)"/><use xlink:href="#R" transform="matrix(1,0,0,1,1583.8484044893619,908.6984126984124) translate(20.99560546875 32.396484375)"/><use xlink:href="#S" transform="matrix(1,0,0,1,1583.8484044893619,908.6984126984124) translate(15.5947265625 50.396484375)"/><use xlink:href="#T" transform="matrix(1,0,0,1,1583.8484044893619,908.6984126984124) translate(69.603515625 50.396484375)"/><use xlink:href="#U" transform="matrix(1,0,0,1,1583.8484044893619,908.6984126984124) translate(15.5947265625 68.396484375)"/><use xlink:href="#y" transform="matrix(1,0,0,1,1583.8484044893619,908.6984126984124) translate(26.396484375 86.396484375)"/><path d="M1885.35 947.48h-5.14v-1h5.15zm-10.28 0h-10.27v-1h10.27zm-15.4 0h-10.3v-1h10.3zm-123.33 0h-10.28v-1h10.28zm-15.42 0h-10.28v-1h10.28zm-15.4 0h-5.15v-1h5.14z" fill="#333"/><path d="M1886.26 946.98l-17.94 10.62-.5-.87 16.48-9.75-16.5-9.75.52-.86zM1700.38 947.48h-.53l.02-.5v-.5h.5z" fill="#333"/><use xlink:href="#P" transform="matrix(1,0,0,1,1739.0550407958629,937.9841269841268) translate(0.005000000000002558 14.396484375)"/><path d="M1777.03 425.87c0 29.37-30.43 53.18-67.96 53.18-37.52 0-67.95-23.8-67.95-53.18 0-29.36 30.43-53.17 67.95-53.17 37.53 0 67.96 23.8 67.96 53.17z" stroke="#333" fill="#fff"/><use xlink:href="#V" transform="matrix(1,0,0,1,1661.5079789574468,393.9682539682538) translate(26.396484375 19.396484375)"/><use xlink:href="#E" transform="matrix(1,0,0,1,1661.5079789574468,393.9682539682538) translate(26.396484375 37.396484375)"/><use xlink:href="#W" transform="matrix(1,0,0,1,1661.5079789574468,393.9682539682538) translate(26.396484375 55.396484375)"/><path d="M1337.03 583.17h-5.14v-1h5.13zm15.4 0h-10.27v-1h10.26zm15.4 0h-10.28v-1h10.27zm15.38 0h-10.25v-1h10.26zm15.4 0h-10.25v-1h10.26zm15.4 0h-10.26v-1H1414zm15.4 0h-10.26v-1h10.26zm15.4 0h-10.26v-1h10.26zm15.4 0h-10.27v-1h10.27zm15.4 0h-10.27v-1h10.26zm15.4 0h-10.27v-1H1491zm15.4 0h-10.28v-1h10.27zm15.38 0h-10.26v-1h10.26zm16.45-1.64l-2.94 1.22-3.22.42h-5.16v-1h5.1l3-.4 2.83-1.16zm6.32-10.83l-.42 3.22-1.23 2.94-.92-.38 1.17-2.83.4-3v-4.9h1zm0-9.87h-1V551h1zm0-14.75h-1v-9.84h1zm0-14.76h-1v-9.83h1zm0-14.75h-1v-9.84h1zm0-14.76h-1v-2.9h1zm0-20.9h-1v-3.68h1zm0-8.6h-1v-9.83h1zm0-14.75h-1v-9.84h1zm1.56-25.48l-1.16 2.82-.4 3v4.9h-1v-4.96l.43-3.2 1.22-2.95zm14.62-5.7h-4.64l-3.02.4-2.82 1.17-.38-.92 2.94-1.23 3.22-.43h4.7zm14 0h-9.33v-1h9.33zm14.02 0h-9.34v-1h9.34zm14.02 0h-9.35v-1h9.36zm14 0h-9.33v-1h9.34zm14.02 0h-9.34v-1h9.34zm9.34 0h-4.67v-1h4.67z" fill="#333"/><path d="M1349.44 572.92l-16.5 9.75 16.5 9.75-.5.86-17.96-10.6 17.95-10.62zM1640.62 425.87v.5h-.5v-1h.52z" fill="#333"/><use xlink:href="#P" transform="matrix(1,0,0,1,1490.0390835119679,480.90449747074047) translate(0.005000000000002558 14.396484375)"/><path d="M2378.9 234.44c0 29.37-30.43 53.18-67.96 53.18-37.53 0-67.96-23.8-67.96-53.18 0-29.36 30.43-53.17 67.96-53.17 37.53 0 67.95 23.8 67.95 53.17z" stroke="#333" fill="#fff"/><use xlink:href="#X" transform="matrix(1,0,0,1,2263.369681085106,202.53968253968245) translate(10.19384765625 28.396484375)"/><use xlink:href="#v" transform="matrix(1,0,0,1,2263.369681085106,202.53968253968245) translate(26.396484375 46.396484375)"/><path d="M2378.9 425.87c0 29.37-30.43 53.18-67.96 53.18-37.53 0-67.96-23.8-67.96-53.18 0-29.36 30.43-53.17 67.96-53.17 37.53 0 67.95 23.8 67.95 53.17z" stroke="#333" fill="#fff"/><use xlink:href="#Y" transform="matrix(1,0,0,1,2263.369681085106,393.9682539682538) translate(15.5947265625 28.396484375)"/><use xlink:href="#Z" transform="matrix(1,0,0,1,2263.369681085106,393.9682539682538) translate(10.19384765625 46.396484375)"/><use xlink:href="#aa" transform="matrix(1,0,0,1,2263.369681085106,393.9682539682538) translate(42.59912109375 46.396484375)"/><path d="M2398.3 617.3c0 29.37-34.77 53.18-77.66 53.18-42.9 0-77.66-23.8-77.66-53.18 0-29.37 34.77-53.17 77.66-53.17 42.9 0 77.66 23.8 77.66 53.17z" stroke="#333" fill="#fff"/><use xlink:href="#D" transform="matrix(1,0,0,1,2266.28191512766,585.3968253968251) translate(32.896484375 28.396484375)"/><use xlink:href="#ab" transform="matrix(1,0,0,1,2266.28191512766,585.3968253968251) translate(11.29296875 46.396484375)"/><path d="M1975.07 424.73l-2.94 1.22-3.2.42h-4.94v-1h4.85l3.02-.4 2.82-1.17zm-15.97 1.64h-9.8v-1h9.8zm-14.7 0h-9.77v-1h9.78zm-14.67 0h-9.78v-1h9.78zm-14.68 0h-9.8v-1h9.8zm-14.68 0h-9.8v-1h9.8zm-14.68 0h-9.8v-1h9.8zm-14.7 0h-9.78v-1h9.8zm-14.67 0h-9.8v-1h9.8zm-14.68 0h-9.8v-1h9.8zm-14.7 0h-9.77v-1h9.78zm-14.67 0h-9.78v-1h9.78zm-14.68 0h-9.8v-1h9.8zm-14.68 0h-4.9v-1h4.9zm198.46-12.46l-.42 3.22-1.22 2.94-.92-.4 1.17-2.8.38-3.02v-5.04h1zm0-10.17h-1v-10.15h1zm0-15.22h-1v-10.14h1zm0-15.22h-1v-10.14h1zm0-15.22h-1v-10.14h1zm0-15.22h-1V332.7h1zm0-15.22h-1v-10.15h1zm0-15.22h-1v-10.15h1zm0-15.22h-1v-10.15h1zm0-15.22h-1V271.8h1zm0-15.22h-1V256.6h1zm1.57-26.1l-1.17 2.82-.4 3.02v5.04h-1v-5.1l.42-3.22 1.23-2.95zm14.8-5.7h-4.83l-3.02.4-2.82 1.17-.38-.92 2.94-1.2 3.2-.44h4.92zm243.82 0h-4.87v-1h4.87zm-9.75 0h-9.75v-1h9.75zm-14.63 0h-9.76v-1h9.75zm-14.64 0h-9.75v-1h9.76zm-14.62 0h-9.76v-1h9.76zm-131.66 0h-9.76v-1h9.76zm-14.63 0h-9.76v-1h9.75zm-14.63 0h-9.76v-1h9.76zm-14.63 0h-9.76v-1h9.75z" fill="#333"/><path d="M2242.48 234.44l-17.94 10.62-.5-.87 16.48-9.76-16.5-9.75.52-.87zM1778.04 426.37h-.53l.03-.5v-.5h.5z" fill="#333"/><use xlink:href="#ac" transform="matrix(1,0,0,1,2058.0176372298315,225.44444444444434) translate(0.005000000000002558 14.396484375)"/><path d="M2241.57 426.37h-4.98v-1h4.97zm-9.96 0h-9.96v-1h9.97zm-14.95 0h-9.97v-1h9.97zm-14.95 0h-9.97v-1h9.97zm-14.95 0h-9.97v-1h9.97zm-134.58 0h-9.97v-1h9.97zm-14.96 0h-9.95v-1h9.96zm-14.94 0h-9.97v-1h9.96zm-14.95 0h-9.96v-1h9.97zm-14.94 0h-9.97v-1h9.96zm-14.96 0h-9.97v-1h9.97zm-14.95 0h-9.97v-1h9.97zm-14.95 0h-9.97v-1h9.97zm-14.96 0h-9.97v-1h9.97zm-14.95 0h-9.98v-1h9.97zm-14.96 0h-9.97v-1h9.97zm-14.96 0h-9.97v-1h9.98zm-14.95 0h-9.97v-1h9.97zm-14.95 0h-9.97v-1h9.98zm-14.96 0h-9.97v-1h9.97zm-14.95 0h-9.97v-1h9.97zm-14.95 0h-9.97v-1h9.97zm-14.96 0H1788v-1h9.96zm-14.95 0h-4.97v-1h4.98z" fill="#333"/><path d="M2242.48 425.87l-17.94 10.6-.5-.85 16.48-9.75-16.5-9.75.52-.86zM1778.04 426.37h-.53l.03-.5v-.5h.5z" fill="#333"/><use xlink:href="#ac" transform="matrix(1,0,0,1,2054.0176372298315,416.87301587301573) translate(0.005000000000002558 14.396484375)"/><path d="M2241.57 617.8h-4.87v-1h4.87zm-9.75 0h-9.75v-1h9.75zm-14.63 0h-9.76v-1h9.75zm-14.64 0h-9.75v-1h9.76zm-14.62 0h-9.76v-1h9.76zm-131.92 0h-9.5v-1h9.5zm-14.37 0h-9.76v-1h9.75zm-14.63 0h-9.76v-1h9.76zm-14.63 0h-9.76v-1h9.75zm-22.5-1.4l3.02.4h4.84v1h-4.9l-3.22-.42-2.94-1.22.38-.92zm-8.52-11.13l.4 3 1.17 2.84-.92.4-1.23-2.95-.42-3.22v-5.1h1zm0-10.12h-1V585h1zm0-15.22h-1V569.8h1zm0-15.22h-1v-10.13h1zm0-15.2h-1v-10.16h1zm0-15.23h-1v-10.15h1zm0-15.22h-1V508.9h1zm0-15.22h-1v-10.15h1zm0-15.22h-1v-10.14h1zm0-15.2h-1v-10.16h1zm0-15.23h-1v-10.15h1zm-.42-23.54l.42 3.2v5.12h-1v-5.04l-.4-3-1.16-2.83.92-.38zm-8.83-8.84l2.94 1.22-.38.92-2.83-1.17-3.02-.4H1964v-1h4.92zm-13.03.57h-9.8v-1h9.8zm-14.7 0h-9.77v-1h9.78zm-14.67 0h-9.78v-1h9.78zm-14.68 0h-9.8v-1h9.8zm-14.68 0h-9.8v-1h9.8zm-14.68 0h-9.8v-1h9.8zm-14.7 0h-9.78v-1h9.8zm-14.67 0h-9.8v-1h9.8zm-14.68 0h-9.8v-1h9.8zm-14.7 0h-9.77v-1h9.78zm-14.67 0h-9.78v-1h9.78zm-14.68 0h-9.8v-1h9.8zm-14.68 0h-4.9v-1h4.9z" fill="#333"/><path d="M2242.48 617.3l-17.94 10.6-.5-.85 16.48-9.75-16.5-9.75.52-.86zM1778.04 426.37h-.53l.03-.5v-.5h.5z" fill="#333"/><use xlink:href="#ac" transform="matrix(1,0,0,1,2056.0176372298315,608.301587301587) translate(0.005000000000002558 14.396484375)"/><path d="M618.13 1190.76h-5v-1h5zm15 0h-10v-1h10zm15 0h-10v-1h10zm15 0h-10v-1h10zm15 0h-10v-1h10zm15 0h-10v-1h10zm15 0h-10v-1h10zm15 0h-10v-1h10zm15 0h-10v-1h10zm15 0h-10v-1h10zm15 0h-10v-1h10zm15 0h-10v-1h10zm15 0h-10v-1h10zm14.98 0h-10v-1h10zm15 0h-10v-1h10zm15 0h-10v-1h10zm15 0h-10v-1h10zm15 0h-10v-1h10zm15 0h-10v-1h10zm15 0h-10v-1h10zm15 0h-10v-1h10zm15 0h-10v-1h10zm15 0h-10v-1h10zm15 0h-10v-1h10zm15 0h-10v-1h10zm15 0h-10v-1h10zm15 0h-10v-1h10zm15 0h-10v-1h10zm15 0h-10v-1h10zm15 0h-10v-1h10zm15 0h-10v-1h10zm15 0h-10v-1h10zm15 0h-10v-1h10zm14.98 0h-10v-1h10zm15 0h-10v-1h10zm15 0h-10v-1h10zm15 0h-10v-1h10zm15 0h-10v-1h10zm15 0h-10v-1h10zm15 0h-10v-1h10zm15 0h-10v-1h10zm15 0h-10v-1h10zm15 0h-10v-1h10zm15 0h-10v-1h10zm15 0h-10v-1h10zm15 0h-10v-1h10zm15 0h-10v-1h10zm14.98 0h-10v-1h10zm15 0h-10v-1h10zm15 0h-10v-1h10zm15 0h-10v-1h10zm15 0h-10v-1h10zm15 0h-10v-1h10zm15 0h-10v-1h10zm15 0h-10v-1h10zm15 0h-10v-1h10zm15 0h-10v-1h10zm15 0h-10v-1h10zm15 0h-10v-1h10zm11.53 0h-6.55v-1h6.54zm123.44 0h-10v-1h10zm15 0h-10v-1h10zm15 0h-10v-1h10zm15 0h-10v-1h10zm15 0h-10v-1h10zm15 0h-10v-1h10zm15 0h-10v-1h10zm15 0h-10v-1h10zm14.98 0h-10v-1h10zm15 0h-10v-1h10zm15 0h-10v-1h10zm15 0h-10v-1h10zm15 0h-10v-1h10zm15 0h-10v-1h10zm15 0h-10v-1h10zm15 0h-10v-1h10zm15 0h-10v-1h10zm15 0h-10v-1h10zm15 0h-10v-1h10zm15 0h-10v-1h10zm15 0h-10v-1h10zm16.17-1.64l-2.95 1.22-3.2.42H1928v-1h4.97l3.02-.4 2.8-1.16zm-331.16 1.64h-.44v-1h.44zm337.47-12.47l-.42 3.2-1.22 2.95-.92-.38 1.17-2.83.4-3v-4.9h1zm0-9.86h-1v-9.8h1zm0-14.72h-1v-9.82h1zm0-14.73h-1v-9.82h1zm0-14.73h-1v-9.82h1zm0-14.72h-1v-9.82h1zm0-14.73h-1V1085h1zm0-14.72h-1v-9.82h1zm0-14.73h-1v-9.8h1zm0-14.72h-1v-9.82h1zm0-14.73h-1v-9.8h1zm0-14.72h-1v-9.82h1zm0-14.72h-1v-4.9h1z" fill="#333"/><path d="M613.15 1190.76h-.54l.03-.5v-.5h.52zM1955.62 1018.6l-.86.5-9.75-16.48-9.75 16.5-.86-.52 10.6-17.94z" fill="#333"/><use xlink:href="#P" transform="matrix(1,0,0,1,1499.5863567916751,1181.2579365079364) translate(0.005000000000002558 14.396484375)"/><path d="M2690.5 807.73h-1v-15.8h1zm-9.26-190.5l3 1.24 2.6 2 2 2.6 1.24 3 .42 3.2v144.67h-1v-144.6l-.4-3.02-1.14-2.76-1.83-2.4-2.4-1.82-2.75-1.14-3-.4h-213.04v-1h213.1zm-281.94.57v-1h22.44v1z" fill="#333"/><path d="M2690.5 808.3l-.5-.07-.5.06v-.6h1zM2399.32 617.8h-.53v-1h.52z" fill="#333"/><use xlink:href="#ad" transform="matrix(1,0,0,1,2421.73782132751,608.301587301587) translate(0.004999999999999005 14.396484375)"/><use xlink:href="#ae" transform="matrix(1,0,0,1,2684.59912109375,773.938967119998) translate(0.004999999999999893 14.396484375)"/><path d="M239.67 1144.8c0 10.73-8.7 19.43-19.4 19.43-10.74 0-19.43-8.7-19.43-19.42 0-10.7 8.7-19.4 19.42-19.4 10.72 0 19.4 8.7 19.4 19.4z" stroke="#333" fill="#fff"/><path d="M220.26 1164.23v54.82c0 4.42 1.78 11.1 3.97 14.95l34.86 60.83m-38.84-67.78l-38.83 67.78m0-111.2h77.66" stroke="#333" fill="none"/><path d="M181.43 1133.4c0-4.42 3.58-8 8-8h61.66c4.4 0 8 3.58 8 8v175.43c0 4.4-3.6 8-8 8h-61.67c-4.42 0-8-3.6-8-8z" fill="none"/><path d="M239.67 764.34c0 10.72-8.7 19.4-19.4 19.4-10.74 0-19.43-8.68-19.43-19.4 0-10.73 8.7-19.42 19.42-19.42 10.72 0 19.4 8.7 19.4 19.42z" stroke="#333" fill="#fff"/><path d="M220.26 783.75v54.83c0 4.42 1.78 11.1 3.97 14.94l34.86 60.83m-38.84-67.77l-38.83 67.77m0-111.18h77.66" stroke="#333" fill="none"/><path d="M181.43 752.92c0-4.42 3.58-8 8-8h61.66c4.4 0 8 3.58 8 8v175.43c0 4.42-3.6 8-8 8h-61.67c-4.42 0-8-3.58-8-8z" fill="none"/><path d="M220.26 1124.4V927.45" stroke="#333" fill="none"/><path d="M220.76 1124.96l-.48-.06h-.52v-.52h1z" fill="#333"/><path d="M220.26 905.43l12.72 21.52h-25.45z" stroke="#333" fill="#fff"/><path d="M81.43 816.73c0-4.42 3.58-8 8-8h139.32c4.4 0 8 3.58 8 8v47.8c0 4.43-3.6 8-8 8H89.43c-4.42 0-8-3.57-8-8z" stroke="#000" stroke-opacity="0" fill="#fff" fill-opacity="0"/><g><use xlink:href="#af" transform="matrix(1,0,0,1,101.42622981961891,808.7301587301594) translate(20.19384765625 28.396484375)"/><use xlink:href="#ag" transform="matrix(1,0,0,1,101.42622981961891,808.7301587301594) translate(25.5947265625 46.396484375)"/></g><path d="M1631.9 882.17h-1v-4.97h1zm0-9.94h-1v-9.94h1zm0-14.9h-1v-9.95h1zm0-14.92h-1v-9.93h1zm0-14.9h-1v-9.94h1zm0-14.9h-1v-9.95h1zm0-14.92h-1v-9.94h1zm0-14.9h-1v-8.2h1zm0-29.84h-1V743h1zm0-14.9h-1v-9.95h1zm0-14.92h-1v-9.94h1zm0-14.9h-1v-9.95h1zm0-14.92h-1v-9.94h1zm0-14.9h-1v-9.95h1zm0-14.92h-1v-9.94h1zm0-14.9h-1v-9.96h1zm-.4-23.14l.4 3.2v5h-1v-4.92l-.38-3.02-1.17-2.82.93-.38zm-8.84-8.84l2.95 1.23-.38.92-2.82-1.17-3.02-.4h-4.95v-1h5.02zm-13.22.58h-9.98v-1h9.98zm-14.97 0h-9.98v-1h9.97zm-14.97 0h-9.98v-1h9.98zm-14.97 0h-9.97v-1h9.97zm-14.96 0h-9.98v-1h9.97zm-14.97 0h-9.98v-1h9.98zm-14.97 0h-9.98v-1h9.98zm-14.96 0h-9.98v-1h9.97zm-14.97 0h-9.98v-1h9.98zm-14.97 0h-9.98v-1h9.98zm-14.97 0h-9.97v-1h9.96zm-14.96 0h-9.98v-1h9.98zm-14.97 0h-9.98v-1h9.98zm-14.97 0h-9.98v-1h9.98zm-14.97 0h-9.98v-1h9.97zm-14.97 0h-9.98v-1h9.98zm-14.97 0h-9.98v-1h9.98zm-14.97 0h-10v-1h10zm-14.97 0h-9.98v-1h9.98zm-14.97 0h-5v-1h5zM1631.9 882.7l-.48-.03h-.5v-.5h1z" fill="#333"/><path d="M1337.6 606.93l-16.48 9.75 16.5 9.75-.52.87-17.94-10.62 17.94-10.6z" fill="#333"/><g><use xlink:href="#ac" transform="matrix(1,0,0,1,1572.0052258823139,756.5860694486959) translate(0.005000000000002558 14.396484375)"/></g><path d="M259.88 830.06h-38.62v-1h38.62zm192.26 0H269.88v-1h182.26zm24.26 0h-14.26v-1h14.26z" fill="#333"/><path d="M221.27 830.06h-3.5v-1h3.5zM476.8 830.06h-.4v-1h.62z" fill="#333"/><g><use xlink:href="#ah" transform="matrix(1,0,0,1,259.88478924134046,818.7578700560487) translate(0.004999999999999893 14.4)"/></g><g><use xlink:href="#ah" transform="matrix(1,0,0,1,452.1447834599568,818.7578700560487) translate(0.004999999999999893 14.4)"/></g><path d="M910 992h310.65v31.6H910z" fill="#fff" fill-opacity="0"/><path d="M605.53 1217.72h-5v-1h5zm15 0h-10v-1h10zm14.97 0h-10v-1h10zm14.98 0h-10v-1h10zm15 0h-10v-1h10zm14.97 0h-10v-1h10zm14.98 0h-10v-1h10zm15 0h-10v-1h10zm14.97 0h-10v-1h10zm14.98 0h-10v-1h10zm15 0h-10v-1h10zm14.97 0h-10v-1h10zm14.98 0h-10v-1h10zm15 0h-10v-1h10zm14.97 0h-10v-1h10zm14.98 0h-10v-1h10zm15 0h-10v-1h10zm14.97 0h-10v-1h10zm14.98 0h-10v-1h10zm15 0h-10v-1h10zm14.97 0h-10v-1h10zm14.98 0h-10v-1h10zm15 0h-10v-1h10zm14.97 0h-10v-1h10zm14.98 0h-10v-1h10zm15 0h-10v-1h10zm14.97 0h-10v-1h10zm14.98 0h-10v-1h10zm15 0h-10v-1h10zm14.97 0h-10v-1h10zm14.98 0h-9.98v-1h9.98zm15 0h-10v-1h10zm14.97 0h-10v-1h10zm14.98 0H1090v-1h9.98zm15 0h-10v-1h10zm14.97 0h-10v-1h10zm14.98 0h-9.98v-1h9.98zm15 0h-10v-1h10zm14.97 0h-10v-1h10zm14.98 0h-9.98v-1h9.98zm15 0h-10v-1h10zm14.97 0h-10v-1h10zm14.98 0h-9.98v-1h9.98zm15 0h-10v-1h10zm14.97 0h-10v-1h10zm14.98 0h-9.98v-1h9.98zm15 0h-10v-1h10zm14.97 0h-10v-1h10zm14.98 0h-9.98v-1h9.98zm15 0h-10v-1h10zm14.97 0h-10v-1h10zm15 0h-10v-1h10zm14.97 0h-10v-1h10zm14.98 0h-10v-1h10zm15 0h-10v-1h10zm14.97 0h-10v-1h10zm14.98 0h-10v-1h10zm15 0h-10v-1h10zm14.97 0h-10v-1h10zm14.98 0h-10v-1h10zm15 0h-10v-1h10zm14.97 0h-10v-1h10zm14.98 0h-10v-1h10zm15 0h-10v-1h10zm14.97 0h-10v-1h10zm14.98 0h-10v-1h10zm15 0h-10v-1h10zm14.97 0h-10v-1h10zm14.98 0h-10v-1h10zm15 0h-10v-1h10zm14.97 0h-10v-1h10zm14.98 0h-10v-1h10zm15 0h-10v-1h10zm14.97 0h-10v-1h10zm14.98 0h-10v-1h10zm15 0h-10v-1h10zm14.97 0h-10v-1h10zm14.98 0h-10v-1h10zm15 0h-10v-1h10zm14.97 0h-10v-1h10zm14.98 0h-10v-1h10zm14.1 0h-9.1v-1h9.1zm135.74 0h-10v-1h10zm14.98 0h-10v-1h10zm14.98 0h-10v-1h10zm15 0h-10v-1h10zm14.97 0h-10v-1h10zm14.98 0h-10v-1h10zm15 0h-10v-1h10zm14.97 0h-10v-1h10zm14.98 0h-9.98v-1h9.98zm15 0h-10v-1h10zm14.97 0h-10v-1h10zm14.98 0h-9.98v-1h9.98zm15 0h-10v-1h10zm14.97 0h-10v-1h10zm14.98 0h-9.98v-1h9.98zm15 0h-10v-1h10zm14.97 0h-10v-1h10zm14.98 0h-9.98v-1h9.98zm15 0h-10v-1h10zm14.97 0h-10v-1h10zm14.98 0h-9.98v-1h9.98zm15 0h-10v-1h10zm14.97 0h-10v-1h10zm14.98 0h-9.98v-1h9.98zm16.18-1.63l-2.94 1.2-3.22.42h-5.03v-1h4.96l3.03-.4 2.8-1.16zm-375.78 1.62h-1.92v-1h1.92zm382.1-12.46l-.43 3.2-1.22 2.96-.93-.4 1.18-2.8.4-3.03v-4.92h1zm0-9.92h-1v-9.88h1zm0-14.83h-1v-9.87h1zm0-14.8h-1v-9.9h1zm0-14.84h-1v-9.88h1zm0-14.82h-1v-9.9h1zm0-14.83h-1v-9.88h1zm0-14.82h-1v-9.88h1zm0-14.82h-1v-9.9h1zm0-14.83h-1v-9.88h1zm0-14.83h-1v-9.88h1zm0-14.82h-1v-9.9h1zm0-14.83h-1v-9.88h1zm0-14.83h-1v-9.88h1zm0-14.82h-1v-9.9h1zm0-14.83h-1v-9.88h1zm0-14.82h-1v-9.9h1zm0-14.83h-1v-9.9h1zm0-14.83h-1v-9.9h1zm0-14.83h-1v-9.9h1zm0-14.83h-1v-9.88h1zm0-14.83h-1v-9.87h1zm0-14.8h-1v-9.9h1zm0-14.84h-1v-9.88h1zm0-14.83h-1v-9.88h1zm0-14.82h-1v-9.88h1zm0-14.82h-1v-9.88h1zm0-14.82h-1v-9.9h1zm0-14.83h-1v-9.9h1zm0-14.83h-1v-9.88h1zm0-14.82h-1v-9.9h1zm0-14.83h-1v-9.88h1zm0-14.83h-1v-9.88h1zm0-14.82h-1V711h1zm0-14.83h-1v-9.88h1zm0-14.83h-1v-9.88h1zm0-14.82h-1v-4.94h1z" fill="#333"/><path d="M618.08 1207.47l-16.5 9.75 16.5 9.76-.5.86-17.95-10.62 17.94-10.6zM2320.64 670.98h.5v.5h-1v-.52z" fill="#333"/><g><use xlink:href="#ac" transform="matrix(1,0,0,1,1818.3114961706779,1208.2247914954924) translate(0.005000000000002558 14.396484375)"/></g><path d="M644.65 1393.67h-21.8v-1h21.8zm1954-498.8h-126.62l-3 .4-2.77 1.13-2.4 1.84-1.82 2.4-1.14 2.74-.4 3.02v474.8l-.42 3.22-1.24 3-2 2.6-2.6 2-3 1.23-3.2.42H687.85v-1h1760.1l3.02-.4 2.76-1.13 2.4-1.84 1.82-2.4 1.14-2.74.4-3.02v-474.8l.42-3.22 1.24-3 2-2.6 2.6-2 3-1.23 3.2-.43h126.7zm40.85 0h-30.05v-1h30.05zM2643 894.87h-3.5v-1h3.5zM622.85 1393.67h-.53l.02-.5v-.5h.5z" fill="#333"/><g><use xlink:href="#ad" transform="matrix(1,0,0,1,644.6479919922006,1384.174603174603) translate(0.004999999999999005 14.396484375)"/></g><g><use xlink:href="#ae" transform="matrix(1,0,0,1,2598.647374652715,885.3650793650793) translate(0.004999999999999893 14.396484375)"/></g><path d="M884.44 1185.62l-3.14 1.03-1.63 2.23-.22 1.34.88 2.68 2.23 1.63 1.88.3v17.76l-3.14 1-1.63 2.24-.22 1.34.88 2.7 2.23 1.62 1.88.3v170.87h-1v-170.02l-1.28-.2-2.68-1.96-1.05-3.24.3-1.8 1.95-2.7 2.76-.9v-16.18l-1.28-.2-2.68-1.96-1.05-3.22.3-1.82 1.95-2.68 2.76-.9V947h1zm0-256.62h-1v-34.2h1z" fill="#333"/><path d="M883.93 894.3h.5v.52h-1v-.53zM884.44 1393.17h-1v-.5h1z" fill="#333"/><g><use xlink:href="#ad" transform="matrix(1,0,0,1,862.3379740573338,929) translate(0.004999999999999005 14.396484375)"/></g><path d="M259.75 239.75c0 10.9-8.84 19.75-19.75 19.75-10.9 0-19.75-8.84-19.75-19.75 0-10.9 8.84-19.75 19.75-19.75 10.9 0 19.75 8.84 19.75 19.75z" stroke="#333" fill="#fff"/><path d="M240 259.5v47.3c0 4.42 1.92 11.03 4.28 14.76L280 378m-40-63.2L200 378m0-98.75h80" stroke="#333" fill="none"/><path d="M200 228c0-4.42 3.58-8 8-8h64c4.42 0 8 3.58 8 8v164c0 4.42-3.58 8-8 8h-64c-4.42 0-8-3.58-8-8z" fill="none"/><g><use xlink:href="#ai" transform="matrix(1,0,0,1,120,378) translate(92.99560546875 16.396484375)"/></g><path d="M1309.52 537.48h-1V507h1zm-9.26-238.63l3 1.25 2.6 2 2 2.6 1.24 3 .42 3.2V489h-1V310.96l-.4-3-1.14-2.77-1.83-2.4-2.4-1.83-2.75-1.14-3-.4h-231.24l-.1.04-.07.2-.25.56-.66.27H377.4v-1h687.1l.1-.04.06-.2.24-.55.66-.27h231.5zM366.6 300.5h-66.1v-1h66.1zM300.5 300.5h-.5v-1h.5zM1309.52 538.4l-.32-.28-.68-.54v-.1h1z" fill="#333"/><g><use xlink:href="#ae" transform="matrix(1,0,0,1,366.60755072963286,291) translate(0.004999999999999893 14.396484375)"/></g><g><use xlink:href="#ae" transform="matrix(1,0,0,1,1303.61682595629,488.9999999999999) translate(0.004999999999999893 14.396484375)"/></g><defs><path fill="#00e" d="M872-915c-35-112-84-223-220-223-91 0-156 41-204 116-89 137-87 550 2 688 51 79 116 122 209 122 150 0 197-126 240-244l273 52C1094-168 961 20 656 20 239 20 80-262 80-681c0-418 154-689 568-689 289 0 425 167 496 389" id="aj"/><path fill="#00e" d="M616-1102c361 0 521 202 521 560 0 354-171 562-527 562C259 20 92-192 92-542c0-351 169-560 524-560zm-9 930c200-2 236-165 236-370 0-199-27-367-223-367-195 0-233 146-233 367 0 129 18 223 55 282s92 88 165 88" id="ak"/><path fill="#00e" d="M794-190h353V0H118v-190h395v-1104H223v-190h571v1294" id="al"/><path fill="#00e" d="M875-1102c70 0 148 7 206 17v237c-110-17-267-37-359 15-123 69-192 207-192 395V0H250c-10-367 32-789-52-1082h271c19 69 36 149 46 228h4c52-151 151-250 356-248" id="am"/><path fill="#00e" d="M-5 220v-96h1238v96H-5" id="an"/><path fill="#00e" d="M609-1161c-125 0-218 36-218 153 0 149 166 161 290 196 235 67 484 129 484 421 0 300-239 408-554 411C302 23 93-114 38-367l285-37c32 128 131 205 296 203 143-2 259-31 259-173 0-164-197-172-333-212-218-64-441-131-441-405 0-276 231-379 511-379 299 0 463 114 513 363l-286 29c-28-115-96-183-233-183" id="ao"/><path fill="#00e" d="M1028 0H784c-56-191-119-378-170-573C562-377 495-191 437 0H194L11-1082h228c32 239 67 472 95 714 4 40 7 80 7 119 53-195 119-378 177-568h193c56 190 120 371 169 568-1-79 11-158 21-226l91-607h226" id="ap"/><path fill="#00e" d="M794-190h353V0H118v-190h395v-702H223v-190h571v892zM513-1277v-207h281v207H513" id="aq"/><path fill="#00e" d="M711 13c-250 0-386-99-385-349l2-556H161v-190h181l88-282h176v282h385v190H606v530c-10 130 45 186 174 184 91-2 176-11 255-27v186C933-1 833 13 711 13" id="ar"/><path fill="#00e" d="M1109-360C1066-122 902 20 624 20c-347 0-514-209-514-555 0-353 168-567 518-567 270 0 425 136 473 361l-283 14c-16-106-75-183-196-182-75 0-130 31-165 93s-52 152-52 270c0 249 74 374 221 374 120 0 188-82 201-201" id="as"/><path fill="#00e" d="M424-1484c-2 206 5 424-8 618h4c67-145 160-234 348-236 251-3 335 167 336 416V0H824v-621c0-150-23-276-173-270-163 7-227 142-227 312V0H143v-1484h281" id="at"/><path fill="#00e" d="M1113-274C1038-96 884 20 626 20c-352 0-526-209-526-566 0-358 185-556 530-556 358 0 496 251 499 615H395c5 180 68 319 245 319 102 0 186-45 208-129zM857-663c-6-177-128-307-315-247-94 30-141 121-145 247h460" id="au"/><g id="a"><use transform="matrix(0.014973958333333329,0,0,0.014973958333333329,0,0)" xlink:href="#aj"/><use transform="matrix(0.014973958333333329,0,0,0.014973958333333329,18.40299479166666,0)" xlink:href="#ak"/><use transform="matrix(0.014973958333333329,0,0,0.014973958333333329,36.80598958333332,0)" xlink:href="#al"/><use transform="matrix(0.014973958333333329,0,0,0.014973958333333329,55.208984374999986,0)" xlink:href="#ak"/><use transform="matrix(0.014973958333333329,0,0,0.014973958333333329,73.61197916666664,0)" xlink:href="#am"/><use transform="matrix(0.014973958333333329,0,0,0.014973958333333329,92.0149739583333,0)" xlink:href="#an"/><use transform="matrix(0.014973958333333329,0,0,0.014973958333333329,110.41796874999996,0)" xlink:href="#ao"/><use transform="matrix(0.014973958333333329,0,0,0.014973958333333329,128.82096354166663,0)" xlink:href="#ap"/><use transform="matrix(0.014973958333333329,0,0,0.014973958333333329,147.2239583333333,0)" xlink:href="#aq"/><use transform="matrix(0.014973958333333329,0,0,0.014973958333333329,165.62695312499994,0)" xlink:href="#ar"/><use transform="matrix(0.014973958333333329,0,0,0.014973958333333329,184.0299479166666,0)" xlink:href="#as"/><use transform="matrix(0.014973958333333329,0,0,0.014973958333333329,202.43294270833326,0)" xlink:href="#at"/><use transform="matrix(0.014973958333333329,0,0,0.014973958333333329,220.83593749999991,0)" xlink:href="#au"/><use transform="matrix(0.014973958333333329,0,0,0.014973958333333329,239.23893229166657,0)" xlink:href="#am"/></g><path fill="#00e" d="M483 455v-1939h262V455H483" id="av"/><use transform="matrix(0.014973958333333329,0,0,0.014973958333333329,0,0)" xlink:href="#av" id="b"/><path fill="#00e" d="M1100-543c2 361-147 563-501 563-342 0-470-199-470-548v-821h295v818c3 172 13 322 183 320 173-2 198-150 198-330v-808h295v806" id="aw"/><path fill="#00e" d="M622-916c-112 2-200 14-200 111 0 90 89 101 168 121 234 58 514 77 514 368C1104-4 751 54 434 5 267-21 161-112 121-270l247-37c24 111 113 145 252 141 114-3 226-12 226-124 0-101-103-113-192-134-225-54-490-76-490-351 0-247 201-328 458-328 245 0 413 88 457 292l-249 26c-16-98-92-133-208-131" id="ax"/><g id="c"><use transform="matrix(0.014973958333333329,0,0,0.014973958333333329,0,0)" xlink:href="#aw"/><use transform="matrix(0.014973958333333329,0,0,0.014973958333333329,18.40299479166666,0)" xlink:href="#ax"/><use transform="matrix(0.014973958333333329,0,0,0.014973958333333329,36.80598958333332,0)" xlink:href="#au"/></g><path fill="#00e" d="M775-193C708-75 621 20 439 20 226 20 106-93 106-306c0-251 170-341 417-346l223-4c4-143-12-264-148-264-103 0-141 58-150 153l-293-14c37-219 194-321 455-321 263 0 418 130 417 390v392c1 84 5 161 89 160 21 0 42-2 62-6v152c-57 15-108 27-180 26-145 0-202-73-217-205h-6zm-256 17c168 0 234-139 227-325-166 4-347-25-347 173 0 94 33 152 120 152" id="ay"/><g id="d"><use transform="matrix(0.014973958333333329,0,0,0.014973958333333329,0,0)" xlink:href="#aj"/><use transform="matrix(0.014973958333333329,0,0,0.014973958333333329,18.40299479166666,0)" xlink:href="#ay"/><use transform="matrix(0.014973958333333329,0,0,0.014973958333333329,36.80598958333332,0)" xlink:href="#ax"/><use transform="matrix(0.014973958333333329,0,0,0.014973958333333329,55.208984374999986,0)" xlink:href="#au"/></g><path fill="#00e" d="M496-1349c439 0 656 222 653 664C1146-265 969 0 556 0H135v-1349h361zm36 1121c245-7 319-187 320-457 1-273-91-439-361-436h-61v893h102" id="az"/><path fill="#00e" d="M1108-33c-3 314-178 467-492 467-243 0-400-94-447-291l281-33c17 79 82 141 174 141 176 0 212-155 205-347-2-40 5-80 0-115C773-85 665-12 501-12c-288 0-377-242-377-538 0-242 65-426 223-510 50-26 108-39 175-39 160 0 253 78 307 191h5c1-58 5-125 14-174h266c-12 335-3 703-6 1049zM811-384c25-82 27-259 1-342-30-99-77-180-190-180-172 0-205 171-205 356 0 116 18 202 54 258 48 76 129 107 221 70 62-25 96-86 119-162" id="aA"/><path fill="#00e" d="M934-1102c199 0 220 177 220 381V0H926c-2-260 10-533-4-785-4-72-14-138-83-138-34 0-61 27-81 81s-29 134-29 241V0H501c-2-260 9-533-5-785-4-72-13-138-82-138-46 0-65 47-80 93-21 67-30 155-30 248V0H75c-3-360 6-732-6-1082h209c6 50 3 123 8 175 36-100 83-195 216-195 135 0 166 79 196 196 42-105 93-196 236-196" id="aB"/><g id="e"><use transform="matrix(0.014973958333333329,0,0,0.014973958333333329,0,0)" xlink:href="#az"/><use transform="matrix(0.014973958333333329,0,0,0.014973958333333329,18.40299479166666,0)" xlink:href="#aq"/><use transform="matrix(0.014973958333333329,0,0,0.014973958333333329,36.80598958333332,0)" xlink:href="#ay"/><use transform="matrix(0.014973958333333329,0,0,0.014973958333333329,55.208984374999986,0)" xlink:href="#aA"/><use transform="matrix(0.014973958333333329,0,0,0.014973958333333329,73.61197916666664,0)" xlink:href="#am"/><use transform="matrix(0.014973958333333329,0,0,0.014973958333333329,92.0149739583333,0)" xlink:href="#ay"/><use transform="matrix(0.014973958333333329,0,0,0.014973958333333329,110.41796874999996,0)" xlink:href="#aB"/></g><use transform="matrix(0.014973958333333329,0,0,0.014973958333333329,0,0)" xlink:href="#av" id="f"/><path fill="#00e" d="M1229 0H935l-92-330H387L295 0H0l443-1349h344zM615-1167c-46 213-110 412-166 615h332c-56-204-119-401-166-615" id="aC"/><path fill="#00e" d="M616-1349c316 3 526 118 526 426 0 301-201 442-514 447H431V0H136v-1349h480zm-25 646c164 1 254-62 254-215 0-157-99-200-262-202H431v417h160" id="aD"/><path fill="#00e" d="M305-1169c27 366 9 780 14 1169H99v-1349h347c49 189 108 371 150 564 12 56 15 107 23 166 33-270 117-487 176-730h335V0H908c5-390-13-801 16-1169-52 285-130 541-199 809H507c-70-267-148-525-202-809" id="aE"/><path fill="#00e" d="M768-1103c247 0 336 167 336 416V0H824v-619c-3-164-24-273-171-273-164 0-229 142-229 312V0H143c-4-359 9-736-8-1082h268c7 63 12 146 13 215h4c67-145 160-236 348-236" id="aF"/><path fill="#00e" d="M135-968c34-256 187-402 480-402 217 0 371 75 441 220 45 93 40 219-8 308-114 212-348 323-508 488-38 39-66 80-85 123h654V0H123v-195c112-245 321-399 515-560 57-48 107-96 142-157 14-26 22-53 22-80-1-104-73-156-185-154-131 2-181 74-199 194" id="aG"/><path fill="#00e" d="M127-675c0-405 101-695 492-695 382 0 482 297 482 695 0 324-79 561-295 658-59 27-124 37-195 37-378 0-484-300-484-695zm580 451c143-96 121-451 101-680-12-138-46-246-191-246-149 0-184 107-199 248-19 180-21 469 36 598 29 67 72 101 159 103 37 0 69-6 94-23" id="aH"/><g id="g"><use transform="matrix(0.014973958333333329,0,0,0.014973958333333329,0,0)" xlink:href="#aC"/><use transform="matrix(0.014973958333333329,0,0,0.014973958333333329,18.40299479166666,0)" xlink:href="#aD"/><use transform="matrix(0.014973958333333329,0,0,0.014973958333333329,36.80598958333332,0)" xlink:href="#an"/><use transform="matrix(0.014973958333333329,0,0,0.014973958333333329,55.208984374999986,0)" xlink:href="#aE"/><use transform="matrix(0.014973958333333329,0,0,0.014973958333333329,73.61197916666664,0)" xlink:href="#ak"/><use transform="matrix(0.014973958333333329,0,0,0.014973958333333329,92.0149739583333,0)" xlink:href="#aF"/><use transform="matrix(0.014973958333333329,0,0,0.014973958333333329,110.41796874999996,0)" xlink:href="#ax"/><use transform="matrix(0.014973958333333329,0,0,0.014973958333333329,128.82096354166663,0)" xlink:href="#ak"/><use transform="matrix(0.014973958333333329,0,0,0.014973958333333329,147.2239583333333,0)" xlink:href="#ak"/><use transform="matrix(0.014973958333333329,0,0,0.014973958333333329,165.62695312499994,0)" xlink:href="#aF"/><use transform="matrix(0.014973958333333329,0,0,0.014973958333333329,184.0299479166666,0)" xlink:href="#an"/><use transform="matrix(0.014973958333333329,0,0,0.014973958333333329,202.43294270833326,0)" xlink:href="#aG"/><use transform="matrix(0.014973958333333329,0,0,0.014973958333333329,220.83593749999991,0)" xlink:href="#aH"/><use transform="matrix(0.014973958333333329,0,0,0.014973958333333329,239.23893229166657,0)" xlink:href="#aG"/><use transform="matrix(0.014973958333333329,0,0,0.014973958333333329,257.64192708333326,0)" xlink:href="#aH"/></g><path fill="#00e" d="M881 0L558-557 431-415V0H136v-1349h295v599l436-599h343L750-770 1229 0H881" id="aI"/><path fill="#00e" d="M471 20c-247 0-336-169-336-415v-687h281v607c4 148 31 285 172 285 152 0 207-150 207-312v-580h281c4 359-9 736 8 1082H816c-7-63-11-146-12-215h-5C736-76 644 20 471 20" id="aJ"/><g id="h"><use transform="matrix(0.010724103009259259,0,0,0.010724103009259259,0,0)" xlink:href="#aI"/><use transform="matrix(0.010724103009259259,0,0,0.010724103009259259,13.17992259837963,0)" xlink:href="#aJ"/><use transform="matrix(0.010724103009259259,0,0,0.010724103009259259,26.35984519675926,0)" xlink:href="#ax"/><use transform="matrix(0.010724103009259259,0,0,0.010724103009259259,39.539767795138886,0)" xlink:href="#at"/><use transform="matrix(0.010724103009259259,0,0,0.010724103009259259,52.71969039351852,0)" xlink:href="#ay"/><use transform="matrix(0.010724103009259259,0,0,0.010724103009259259,65.89961299189815,0)" xlink:href="#al"/></g><path fill="#00e" d="M1019-446c-6 296-159 466-455 466-288 0-421-169-462-422l291-43c13 79 35 137 65 176s66 58 108 58c112 0 159-101 159-228v-679H424v-231h595v903" id="aK"/><path fill="#00e" d="M380 206c143 0 202-71 202-216v-882H228v-190h636V13c-6 279-184 412-459 412-107 0-208-16-288-43V172c69 16 169 34 263 34zm203-1483v-207h281v207H583" id="aL"/><g id="i"><use transform="matrix(0.010724103009259259,0,0,0.010724103009259259,0,0)" xlink:href="#aK"/><use transform="matrix(0.010724103009259259,0,0,0.010724103009259259,13.17992259837963,0)" xlink:href="#aJ"/><use transform="matrix(0.010724103009259259,0,0,0.010724103009259259,26.35984519675926,0)" xlink:href="#aF"/><use transform="matrix(0.010724103009259259,0,0,0.010724103009259259,39.539767795138886,0)" xlink:href="#au"/><use transform="matrix(0.010724103009259259,0,0,0.010724103009259259,52.71969039351852,0)" xlink:href="#aL"/><use transform="matrix(0.010724103009259259,0,0,0.010724103009259259,65.89961299189815,0)" xlink:href="#ay"/></g><path fill="#00e" d="M621-530c0 421 127 700 301 955H641C466 173 344-110 344-531s122-702 297-953h281c-174 254-301 534-301 954" id="aM"/><path fill="#00e" d="M138-1120c207-4 339-93 415-229h266v1140h323V0H149v-209h389v-891c-70 121-216 187-400 194v-214" id="aN"/><path fill="#00e" d="M114-913c0-304 185-457 492-457 163 0 287 55 372 166s128 280 128 507c-1 325-87 566-302 671-146 73-404 55-514-32-75-59-123-143-151-253l264-37c24 90 76 147 180 147 76 0 135-35 179-105s67-174 68-313c-55 100-162 160-311 160-269 0-405-180-405-454zm486 245c129 0 209-78 209-211 0-151-63-271-210-271-137 0-200 99-200 239 0 139 63 243 201 243" id="aO"/><path fill="#00e" d="M426-814c58-49 145-93 255-90 282 8 442 169 442 450 0 312-203 474-522 474-288 0-453-130-497-372l281-23c24 104 89 172 219 172 153 0 230-91 230-245 0-144-78-226-224-229-94-2-148 42-191 91H145l49-763h847v209H449" id="aP"/><path fill="#00e" d="M1092-1126C914-878 744-630 663-296c-23 96-34 194-34 296H336c7-366 145-620 298-854 59-90 126-177 197-264H131v-231h961v223" id="aQ"/><path fill="#00e" d="M885-531c0 421-122 704-297 956H307c174-255 301-534 301-955 0-420-127-700-301-954h281c175 251 297 532 297 953" id="aR"/><g id="j"><use transform="matrix(0.010724103009259259,0,0,0.010724103009259259,0,0)" xlink:href="#aM"/><use transform="matrix(0.010724103009259259,0,0,0.010724103009259259,13.17992259837963,0)" xlink:href="#aG"/><use transform="matrix(0.010724103009259259,0,0,0.010724103009259259,26.35984519675926,0)" xlink:href="#aH"/><use transform="matrix(0.010724103009259259,0,0,0.010724103009259259,39.539767795138886,0)" xlink:href="#aN"/><use transform="matrix(0.010724103009259259,0,0,0.010724103009259259,52.71969039351852,0)" xlink:href="#aO"/><use transform="matrix(0.010724103009259259,0,0,0.010724103009259259,65.89961299189815,0)" xlink:href="#aH"/><use transform="matrix(0.010724103009259259,0,0,0.010724103009259259,79.07953559027779,0)" xlink:href="#aP"/><use transform="matrix(0.010724103009259259,0,0,0.010724103009259259,92.25945818865742,0)" xlink:href="#aQ"/><use transform="matrix(0.010724103009259259,0,0,0.010724103009259259,105.43938078703705,0)" xlink:href="#aR"/></g><use transform="matrix(0.010724103009259259,0,0,0.010724103009259259,0,0)" xlink:href="#av" id="k"/><path fill="#00e" d="M1157-949c0 209-118 316-279 368L1227 0H895L605-515H432V0H137v-1349h494c317-2 526 111 526 400zM608-744c158 1 248-51 252-193 5-207-223-184-428-183v376h176" id="aS"/><g id="l"><use transform="matrix(0.010724103009259259,0,0,0.010724103009259259,0,0)" xlink:href="#aS"/><use transform="matrix(0.010724103009259259,0,0,0.010724103009259259,13.17992259837963,0)" xlink:href="#ak"/><use transform="matrix(0.010724103009259259,0,0,0.010724103009259259,26.35984519675926,0)" xlink:href="#at"/><use transform="matrix(0.010724103009259259,0,0,0.010724103009259259,39.539767795138886,0)" xlink:href="#ay"/><use transform="matrix(0.010724103009259259,0,0,0.010724103009259259,52.71969039351852,0)" xlink:href="#aF"/></g><path fill="#00e" d="M796 0v-574H433V0H138v-1349h295v531h363v-531h295V0H796" id="aT"/><path fill="#00e" d="M802-909c-3-189-2-383-2-575h281v1248c-1 83 4 168 8 236H817c-9-50-14-117-15-176h-4C735-49 651 20 482 20 191 20 97-238 97-539c0-243 66-432 221-519 50-28 108-42 175-42 162 2 253 78 309 191zm-70 658c91-113 93-462 2-584-46-61-145-100-224-53-96 56-119 190-120 349 0 123 17 214 52 275 46 82 130 115 222 74 25-12 46-33 68-61" id="aU"/><g id="m"><use transform="matrix(0.010724103009259259,0,0,0.010724103009259259,0,0)" xlink:href="#aT"/><use transform="matrix(0.010724103009259259,0,0,0.010724103009259259,13.17992259837963,0)" xlink:href="#aq"/><use transform="matrix(0.010724103009259259,0,0,0.010724103009259259,26.35984519675926,0)" xlink:href="#am"/><use transform="matrix(0.010724103009259259,0,0,0.010724103009259259,39.539767795138886,0)" xlink:href="#ay"/><use transform="matrix(0.010724103009259259,0,0,0.010724103009259259,52.71969039351852,0)" xlink:href="#aF"/><use transform="matrix(0.010724103009259259,0,0,0.010724103009259259,65.89961299189815,0)" xlink:href="#ay"/><use transform="matrix(0.010724103009259259,0,0,0.010724103009259259,79.07953559027779,0)" xlink:href="#aF"/><use transform="matrix(0.010724103009259259,0,0,0.010724103009259259,92.25945818865742,0)" xlink:href="#aU"/><use transform="matrix(0.010724103009259259,0,0,0.010724103009259259,105.43938078703705,0)" xlink:href="#ay"/><use transform="matrix(0.010724103009259259,0,0,0.010724103009259259,118.61930338541669,0)" xlink:href="#aF"/><use transform="matrix(0.010724103009259259,0,0,0.010724103009259259,131.7992259837963,0)" xlink:href="#aq"/></g><path fill="#00e" d="M788-691c191 26 337 112 337 315 0 286-214 399-510 399-306 0-483-128-522-391l286-25c18 124 91 190 235 188 132-2 223-58 223-188 0-176-191-182-378-179v-227c176 5 345-9 345-176 0-115-82-171-200-171s-198 55-206 169l-281-20c34-252 213-373 492-373 224 0 381 74 451 224 20 43 29 89 29 136 0 195-130 279-301 315v4" id="aV"/><path fill="#00e" d="M980-287V0H712v-287H71v-211l595-851h314v853h188v209H980zM712-496c2-204-7-417 9-609-118 224-277 405-414 609h405" id="aW"/><g id="n"><use transform="matrix(0.010724103009259259,0,0,0.010724103009259259,0,0)" xlink:href="#aM"/><use transform="matrix(0.010724103009259259,0,0,0.010724103009259259,13.17992259837963,0)" xlink:href="#aG"/><use transform="matrix(0.010724103009259259,0,0,0.010724103009259259,26.35984519675926,0)" xlink:href="#aH"/><use transform="matrix(0.010724103009259259,0,0,0.010724103009259259,39.539767795138886,0)" xlink:href="#aN"/><use transform="matrix(0.010724103009259259,0,0,0.010724103009259259,52.71969039351852,0)" xlink:href="#aO"/><use transform="matrix(0.010724103009259259,0,0,0.010724103009259259,65.89961299189815,0)" xlink:href="#aV"/><use transform="matrix(0.010724103009259259,0,0,0.010724103009259259,79.07953559027779,0)" xlink:href="#aG"/><use transform="matrix(0.010724103009259259,0,0,0.010724103009259259,92.25945818865742,0)" xlink:href="#aW"/><use transform="matrix(0.010724103009259259,0,0,0.010724103009259259,105.43938078703705,0)" xlink:href="#aR"/></g><path fill="#333" d="M496-1349c439 0 656 222 653 664C1146-265 969 0 556 0H135v-1349h361zm36 1121c245-7 319-187 320-457 1-273-91-439-361-436h-61v893h102" id="aX"/><path fill="#333" d="M775-193C708-75 621 20 439 20 226 20 106-93 106-306c0-251 170-341 417-346l223-4c4-143-12-264-148-264-103 0-141 58-150 153l-293-14c37-219 194-321 455-321 263 0 418 130 417 390v392c1 84 5 161 89 160 21 0 42-2 62-6v152c-57 15-108 27-180 26-145 0-202-73-217-205h-6zm-256 17c168 0 234-139 227-325-166 4-347-25-347 173 0 94 33 152 120 152" id="aY"/><path fill="#333" d="M711 13c-250 0-386-99-385-349l2-556H161v-190h181l88-282h176v282h385v190H606v530c-10 130 45 186 174 184 91-2 176-11 255-27v186C933-1 833 13 711 13" id="aZ"/><path fill="#333" d="M429-1484c1 190-1 388 0 572 54-116 155-191 317-191 300 0 386 257 386 563 0 241-73 429-226 518-49 28-106 42-169 42-162 0-251-81-306-196h-4c-1 59-5 127-15 176H140c4-67 9-153 8-236v-1248h281zm66 648c-93 114-92 466 1 585 35 45 77 79 142 79 64 0 112-31 148-92 69-115 68-440-2-561-39-68-131-111-221-70-25 11-46 32-68 59" id="ba"/><path fill="#333" d="M622-916c-112 2-200 14-200 111 0 90 89 101 168 121 234 58 514 77 514 368C1104-4 751 54 434 5 267-21 161-112 121-270l247-37c24 111 113 145 252 141 114-3 226-12 226-124 0-101-103-113-192-134-225-54-490-76-490-351 0-247 201-328 458-328 245 0 413 88 457 292l-249 26c-16-98-92-133-208-131" id="bb"/><path fill="#333" d="M1113-274C1038-96 884 20 626 20c-352 0-526-209-526-566 0-358 185-556 530-556 358 0 496 251 499 615H395c5 180 68 319 245 319 102 0 186-45 208-129zM857-663c-6-177-128-307-315-247-94 30-141 121-145 247h460" id="bc"/><g id="o"><use transform="matrix(0.0087890625,0,0,0.0087890625,0,0)" xlink:href="#aX"/><use transform="matrix(0.0087890625,0,0,0.0087890625,10.8017578125,0)" xlink:href="#aY"/><use transform="matrix(0.0087890625,0,0,0.0087890625,21.603515625,0)" xlink:href="#aZ"/><use transform="matrix(0.0087890625,0,0,0.0087890625,32.4052734375,0)" xlink:href="#aY"/><use transform="matrix(0.0087890625,0,0,0.0087890625,43.20703125,0)" xlink:href="#ba"/><use transform="matrix(0.0087890625,0,0,0.0087890625,54.0087890625,0)" xlink:href="#aY"/><use transform="matrix(0.0087890625,0,0,0.0087890625,64.810546875,0)" xlink:href="#bb"/><use transform="matrix(0.0087890625,0,0,0.0087890625,75.6123046875,0)" xlink:href="#bc"/></g><path fill="#333" d="M865-312c-44-312-23-686-28-1037h257V0H748L364-1010c44 304 24 668 28 1010H135v-1349h337" id="bd"/><path fill="#333" d="M1028 0H784c-56-191-119-378-170-573C562-377 495-191 437 0H194L11-1082h228c32 239 67 472 95 714 4 40 7 80 7 119 53-195 119-378 177-568h193c56 190 120 371 169 568-1-79 11-158 21-226l91-607h226" id="be"/><g id="p"><use transform="matrix(0.008789062499999995,0,0,0.008789062499999995,0,0)" xlink:href="#bd"/><use transform="matrix(0.008789062499999995,0,0,0.008789062499999995,10.801757812499993,0)" xlink:href="#bc"/><use transform="matrix(0.008789062499999995,0,0,0.008789062499999995,21.603515624999986,0)" xlink:href="#be"/></g><path fill="#333" d="M616-1349c316 3 526 118 526 426 0 301-201 442-514 447H431V0H136v-1349h480zm-25 646c164 1 254-62 254-215 0-157-99-200-262-202H431v417h160" id="bf"/><path fill="#333" d="M794-190h353V0H118v-190h395v-1104H223v-190h571v1294" id="bg"/><path fill="#333" d="M143 212c82 12 185 12 233-31 50-45 83-117 110-192L38-1082h297c100 284 211 557 291 861 72-305 176-578 270-861h294L742 57c-80 192-156 368-417 368-60 0-131-4-182-13V212" id="bh"/><path fill="#333" d="M875-1102c70 0 148 7 206 17v237c-110-17-267-37-359 15-123 69-192 207-192 395V0H250c-10-367 32-789-52-1082h271c19 69 36 149 46 228h4c52-151 151-250 356-248" id="bi"/><g id="q"><use transform="matrix(0.008789062499999995,0,0,0.008789062499999995,0,0)" xlink:href="#bf"/><use transform="matrix(0.008789062499999995,0,0,0.008789062499999995,10.801757812499993,0)" xlink:href="#bg"/><use transform="matrix(0.008789062499999995,0,0,0.008789062499999995,21.603515624999986,0)" xlink:href="#aY"/><use transform="matrix(0.008789062499999995,0,0,0.008789062499999995,32.40527343749998,0)" xlink:href="#bh"/><use transform="matrix(0.008789062499999995,0,0,0.008789062499999995,43.20703124999997,0)" xlink:href="#bc"/><use transform="matrix(0.008789062499999995,0,0,0.008789062499999995,54.008789062499964,0)" xlink:href="#bi"/></g><path d="M609-1161c-125 0-218 36-218 153 0 149 166 161 290 196 235 67 484 129 484 421 0 300-239 408-554 411C302 23 93-114 38-367l285-37c32 128 131 205 296 203 143-2 259-31 259-173 0-164-197-172-333-212-218-64-441-131-441-405 0-276 231-379 511-379 299 0 463 114 513 363l-286 29c-28-115-96-183-233-183" id="bj"/><path d="M424-1484c-2 206 5 424-8 618h4c67-145 160-234 348-236 251-3 335 167 336 416V0H824v-621c0-150-23-276-173-270-163 7-227 142-227 312V0H143v-1484h281" id="bk"/><path d="M616-1102c361 0 521 202 521 560 0 354-171 562-527 562C259 20 92-192 92-542c0-351 169-560 524-560zm-9 930c200-2 236-165 236-370 0-199-27-367-223-367-195 0-233 146-233 367 0 129 18 223 55 282s92 88 165 88" id="bl"/><path d="M1028 0H784c-56-191-119-378-170-573C562-377 495-191 437 0H194L11-1082h228c32 239 67 472 95 714 4 40 7 80 7 119 53-195 119-378 177-568h193c56 190 120 371 169 568-1-79 11-158 21-226l91-607h226" id="bm"/><g id="r"><use transform="matrix(0.0087890625,0,0,0.0087890625,0,0)" xlink:href="#bj"/><use transform="matrix(0.0087890625,0,0,0.0087890625,10.8017578125,0)" xlink:href="#bk"/><use transform="matrix(0.0087890625,0,0,0.0087890625,21.603515625,0)" xlink:href="#bl"/><use transform="matrix(0.0087890625,0,0,0.0087890625,32.4052734375,0)" xlink:href="#bm"/></g><path d="M796 0v-574H433V0H138v-1349h295v531h363v-531h295V0H796" id="bn"/><path d="M934-1102c199 0 220 177 220 381V0H926c-2-260 10-533-4-785-4-72-14-138-83-138-34 0-61 27-81 81s-29 134-29 241V0H501c-2-260 9-533-5-785-4-72-13-138-82-138-46 0-65 47-80 93-21 67-30 155-30 248V0H75c-3-360 6-732-6-1082h209c6 50 3 123 8 175 36-100 83-195 216-195 135 0 166 79 196 196 42-105 93-196 236-196" id="bo"/><path d="M1113-274C1038-96 884 20 626 20c-352 0-526-209-526-566 0-358 185-556 530-556 358 0 496 251 499 615H395c5 180 68 319 245 319 102 0 186-45 208-129zM857-663c-6-177-128-307-315-247-94 30-141 121-145 247h460" id="bp"/><g id="s"><use transform="matrix(0.0087890625,0,0,0.0087890625,0,0)" xlink:href="#bn"/><use transform="matrix(0.0087890625,0,0,0.0087890625,10.8017578125,0)" xlink:href="#bl"/><use transform="matrix(0.0087890625,0,0,0.0087890625,21.603515625,0)" xlink:href="#bo"/><use transform="matrix(0.0087890625,0,0,0.0087890625,32.4052734375,0)" xlink:href="#bp"/></g><path d="M616-1349c316 3 526 118 526 426 0 301-201 442-514 447H431V0H136v-1349h480zm-25 646c164 1 254-62 254-215 0-157-99-200-262-202H431v417h160" id="bq"/><path d="M775-193C708-75 621 20 439 20 226 20 106-93 106-306c0-251 170-341 417-346l223-4c4-143-12-264-148-264-103 0-141 58-150 153l-293-14c37-219 194-321 455-321 263 0 418 130 417 390v392c1 84 5 161 89 160 21 0 42-2 62-6v152c-57 15-108 27-180 26-145 0-202-73-217-205h-6zm-256 17c168 0 234-139 227-325-166 4-347-25-347 173 0 94 33 152 120 152" id="br"/><path d="M1108-33c-3 314-178 467-492 467-243 0-400-94-447-291l281-33c17 79 82 141 174 141 176 0 212-155 205-347-2-40 5-80 0-115C773-85 665-12 501-12c-288 0-377-242-377-538 0-242 65-426 223-510 50-26 108-39 175-39 160 0 253 78 307 191h5c1-58 5-125 14-174h266c-12 335-3 703-6 1049zM811-384c25-82 27-259 1-342-30-99-77-180-190-180-172 0-205 171-205 356 0 116 18 202 54 258 48 76 129 107 221 70 62-25 96-86 119-162" id="bs"/><g id="t"><use transform="matrix(0.0087890625,0,0,0.0087890625,0,0)" xlink:href="#bq"/><use transform="matrix(0.0087890625,0,0,0.0087890625,10.8017578125,0)" xlink:href="#br"/><use transform="matrix(0.0087890625,0,0,0.0087890625,21.603515625,0)" xlink:href="#bs"/><use transform="matrix(0.0087890625,0,0,0.0087890625,32.4052734375,0)" xlink:href="#bp"/></g><path d="M865-312c-44-312-23-686-28-1037h257V0H748L364-1010c44 304 24 668 28 1010H135v-1349h337" id="bt"/><g id="u"><use transform="matrix(0.0087890625,0,0,0.0087890625,0,0)" xlink:href="#bt"/><use transform="matrix(0.0087890625,0,0,0.0087890625,10.8017578125,0)" xlink:href="#bp"/><use transform="matrix(0.0087890625,0,0,0.0087890625,21.603515625,0)" xlink:href="#bm"/></g><path d="M650-216c90 0 157-35 208-74v-235H584v-218h544v558C1004-84 858 20 635 20 235 20 80-276 80-681c0-416 146-689 558-689 277 0 398 160 462 375l-274 54c-31-108-73-197-185-197-231 0-262 217-262 457 0 149 22 263 67 344s113 121 204 121" id="bu"/><g id="v"><use transform="matrix(0.0087890625,0,0,0.0087890625,0,0)" xlink:href="#bu"/><use transform="matrix(0.0087890625,0,0,0.0087890625,10.8017578125,0)" xlink:href="#br"/><use transform="matrix(0.0087890625,0,0,0.0087890625,21.603515625,0)" xlink:href="#bo"/><use transform="matrix(0.0087890625,0,0,0.0087890625,32.4052734375,0)" xlink:href="#bp"/></g><path d="M211 0v-1349h295v1121h616V0H211" id="bv"/><path d="M802-909c-3-189-2-383-2-575h281v1248c-1 83 4 168 8 236H817c-9-50-14-117-15-176h-4C735-49 651 20 482 20 191 20 97-238 97-539c0-243 66-432 221-519 50-28 108-42 175-42 162 2 253 78 309 191zm-70 658c91-113 93-462 2-584-46-61-145-100-224-53-96 56-119 190-120 349 0 123 17 214 52 275 46 82 130 115 222 74 25-12 46-33 68-61" id="bw"/><g id="w"><use transform="matrix(0.0087890625,0,0,0.0087890625,0,0)" xlink:href="#bv"/><use transform="matrix(0.0087890625,0,0,0.0087890625,10.8017578125,0)" xlink:href="#bl"/><use transform="matrix(0.0087890625,0,0,0.0087890625,21.603515625,0)" xlink:href="#br"/><use transform="matrix(0.0087890625,0,0,0.0087890625,32.4052734375,0)" xlink:href="#bw"/></g><path d="M137 0v-1349h968v228H432v324h612v228H432v341h714V0H137" id="bx"/><path d="M874 0L612-392 348 0H49l406-559-387-523h303l241 354 240-354h305L770-562 1179 0H874" id="by"/><path d="M794-190h353V0H118v-190h395v-702H223v-190h571v892zM513-1277v-207h281v207H513" id="bz"/><path d="M622-916c-112 2-200 14-200 111 0 90 89 101 168 121 234 58 514 77 514 368C1104-4 751 54 434 5 267-21 161-112 121-270l247-37c24 111 113 145 252 141 114-3 226-12 226-124 0-101-103-113-192-134-225-54-490-76-490-351 0-247 201-328 458-328 245 0 413 88 457 292l-249 26c-16-98-92-133-208-131" id="bA"/><path d="M711 13c-250 0-386-99-385-349l2-556H161v-190h181l88-282h176v282h385v190H606v530c-10 130 45 186 174 184 91-2 176-11 255-27v186C933-1 833 13 711 13" id="bB"/><path d="M768-1103c247 0 336 167 336 416V0H824v-619c-3-164-24-273-171-273-164 0-229 142-229 312V0H143c-4-359 9-736-8-1082h268c7 63 12 146 13 215h4c67-145 160-236 348-236" id="bC"/><g id="x"><use transform="matrix(0.0087890625,0,0,0.0087890625,0,0)" xlink:href="#bx"/><use transform="matrix(0.0087890625,0,0,0.0087890625,10.8017578125,0)" xlink:href="#by"/><use transform="matrix(0.0087890625,0,0,0.0087890625,21.603515625,0)" xlink:href="#bz"/><use transform="matrix(0.0087890625,0,0,0.0087890625,32.4052734375,0)" xlink:href="#bA"/><use transform="matrix(0.0087890625,0,0,0.0087890625,43.20703125,0)" xlink:href="#bB"/><use transform="matrix(0.0087890625,0,0,0.0087890625,54.0087890625,0)" xlink:href="#bz"/><use transform="matrix(0.0087890625,0,0,0.0087890625,64.810546875,0)" xlink:href="#bC"/><use transform="matrix(0.0087890625,0,0,0.0087890625,75.6123046875,0)" xlink:href="#bs"/></g><g id="y"><use transform="matrix(0.0087890625,0,0,0.0087890625,0,0)" xlink:href="#bu"/><use transform="matrix(0.0087890625,0,0,0.0087890625,10.8017578125,0)" xlink:href="#br"/><use transform="matrix(0.0087890625,0,0,0.0087890625,21.603515625,0)" xlink:href="#bo"/><use transform="matrix(0.0087890625,0,0,0.0087890625,32.4052734375,0)" xlink:href="#bp"/></g><g id="z"><use transform="matrix(0.0087890625,0,0,0.0087890625,0,0)" xlink:href="#bx"/><use transform="matrix(0.0087890625,0,0,0.0087890625,10.8017578125,0)" xlink:href="#by"/><use transform="matrix(0.0087890625,0,0,0.0087890625,21.603515625,0)" xlink:href="#bz"/><use transform="matrix(0.0087890625,0,0,0.0087890625,32.4052734375,0)" xlink:href="#bB"/></g><path fill="#333" d="M101-516v-322l1027-391v228L295-676l833 324v227" id="bD"/><path fill="#333" d="M794-190h353V0H118v-190h395v-702H223v-190h571v892zM513-1277v-207h281v207H513" id="bE"/><path fill="#333" d="M768-1103c247 0 336 167 336 416V0H824v-619c-3-164-24-273-171-273-164 0-229 142-229 312V0H143c-4-359 9-736-8-1082h268c7 63 12 146 13 215h4c67-145 160-236 348-236" id="bF"/><path fill="#333" d="M1109-360C1066-122 902 20 624 20c-347 0-514-209-514-555 0-353 168-567 518-567 270 0 425 136 473 361l-283 14c-16-106-75-183-196-182-75 0-130 31-165 93s-52 152-52 270c0 249 74 374 221 374 120 0 188-82 201-201" id="bG"/><path fill="#333" d="M471 20c-247 0-336-169-336-415v-687h281v607c4 148 31 285 172 285 152 0 207-150 207-312v-580h281c4 359-9 736 8 1082H816c-7-63-11-146-12-215h-5C736-76 644 20 471 20" id="bH"/><path fill="#333" d="M802-909c-3-189-2-383-2-575h281v1248c-1 83 4 168 8 236H817c-9-50-14-117-15-176h-4C735-49 651 20 482 20 191 20 97-238 97-539c0-243 66-432 221-519 50-28 108-42 175-42 162 2 253 78 309 191zm-70 658c91-113 93-462 2-584-46-61-145-100-224-53-96 56-119 190-120 349 0 123 17 214 52 275 46 82 130 115 222 74 25-12 46-33 68-61" id="bI"/><path fill="#333" d="M101-125v-227l832-324-832-325v-228l1027 391v322" id="bJ"/><g id="B"><use transform="matrix(0.009874131944444444,0,0,0.009874131944444444,0,0)" xlink:href="#bD"/><use transform="matrix(0.009874131944444444,0,0,0.009874131944444444,12.135308159722221,0)" xlink:href="#bD"/><use transform="matrix(0.009874131944444444,0,0,0.009874131944444444,24.270616319444443,0)" xlink:href="#bE"/><use transform="matrix(0.009874131944444444,0,0,0.009874131944444444,36.405924479166664,0)" xlink:href="#bF"/><use transform="matrix(0.009874131944444444,0,0,0.009874131944444444,48.541232638888886,0)" xlink:href="#bG"/><use transform="matrix(0.009874131944444444,0,0,0.009874131944444444,60.67654079861111,0)" xlink:href="#bg"/><use transform="matrix(0.009874131944444444,0,0,0.009874131944444444,72.81184895833333,0)" xlink:href="#bH"/><use transform="matrix(0.009874131944444444,0,0,0.009874131944444444,84.94715711805553,0)" xlink:href="#bI"/><use transform="matrix(0.009874131944444444,0,0,0.009874131944444444,97.08246527777777,0)" xlink:href="#bc"/><use transform="matrix(0.009874131944444444,0,0,0.009874131944444444,109.2177734375,0)" xlink:href="#bJ"/><use transform="matrix(0.009874131944444444,0,0,0.009874131944444444,121.35308159722223,0)" xlink:href="#bJ"/></g><g id="C"><use transform="matrix(0.009874131944444444,0,0,0.009874131944444444,0,0)" xlink:href="#bD"/><use transform="matrix(0.009874131944444444,0,0,0.009874131944444444,12.135308159722221,0)" xlink:href="#bD"/><use transform="matrix(0.009874131944444444,0,0,0.009874131944444444,24.270616319444443,0)" xlink:href="#bE"/><use transform="matrix(0.009874131944444444,0,0,0.009874131944444444,36.405924479166664,0)" xlink:href="#bF"/><use transform="matrix(0.009874131944444444,0,0,0.009874131944444444,48.541232638888886,0)" xlink:href="#bG"/><use transform="matrix(0.009874131944444444,0,0,0.009874131944444444,60.67654079861111,0)" xlink:href="#bg"/><use transform="matrix(0.009874131944444444,0,0,0.009874131944444444,72.81184895833333,0)" xlink:href="#bH"/><use transform="matrix(0.009874131944444444,0,0,0.009874131944444444,84.94715711805553,0)" xlink:href="#bI"/><use transform="matrix(0.009874131944444444,0,0,0.009874131944444444,97.08246527777777,0)" xlink:href="#bc"/><use transform="matrix(0.009874131944444444,0,0,0.009874131944444444,109.2177734375,0)" xlink:href="#bJ"/><use transform="matrix(0.009874131944444444,0,0,0.009874131944444444,121.35308159722223,0)" xlink:href="#bJ"/></g><path d="M774 0H438L31-1082h297c94 290 200 568 280 872 83-304 194-581 291-872h294" id="bK"/><g id="D"><use transform="matrix(0.0087890625,0,0,0.0087890625,0,0)" xlink:href="#bj"/><use transform="matrix(0.0087890625,0,0,0.0087890625,10.8017578125,0)" xlink:href="#br"/><use transform="matrix(0.0087890625,0,0,0.0087890625,21.603515625,0)" xlink:href="#bK"/><use transform="matrix(0.0087890625,0,0,0.0087890625,32.4052734375,0)" xlink:href="#bp"/></g><g id="E"><use transform="matrix(0.0087890625,0,0,0.0087890625,0,0)" xlink:href="#bu"/><use transform="matrix(0.0087890625,0,0,0.0087890625,10.8017578125,0)" xlink:href="#br"/><use transform="matrix(0.0087890625,0,0,0.0087890625,21.603515625,0)" xlink:href="#bo"/><use transform="matrix(0.0087890625,0,0,0.0087890625,32.4052734375,0)" xlink:href="#bp"/></g><path d="M875-1102c70 0 148 7 206 17v237c-110-17-267-37-359 15-123 69-192 207-192 395V0H250c-10-367 32-789-52-1082h271c19 69 36 149 46 228h4c52-151 151-250 356-248" id="bL"/><g id="F"><use transform="matrix(0.0087890625,0,0,0.0087890625,0,0)" xlink:href="#bq"/><use transform="matrix(0.0087890625,0,0,0.0087890625,10.8017578125,0)" xlink:href="#bL"/><use transform="matrix(0.0087890625,0,0,0.0087890625,21.603515625,0)" xlink:href="#bl"/><use transform="matrix(0.0087890625,0,0,0.0087890625,32.4052734375,0)" xlink:href="#bs"/><use transform="matrix(0.0087890625,0,0,0.0087890625,43.20703125,0)" xlink:href="#bL"/><use transform="matrix(0.0087890625,0,0,0.0087890625,54.0087890625,0)" xlink:href="#bp"/><use transform="matrix(0.0087890625,0,0,0.0087890625,64.810546875,0)" xlink:href="#bA"/><use transform="matrix(0.0087890625,0,0,0.0087890625,75.6123046875,0)" xlink:href="#bA"/></g><path fill="#333" d="M874 0L612-392 348 0H49l406-559-387-523h303l241 354 240-354h305L770-562 1179 0H874" id="bM"/><g id="G"><use transform="matrix(0.009874131944444444,0,0,0.009874131944444444,0,0)" xlink:href="#bD"/><use transform="matrix(0.009874131944444444,0,0,0.009874131944444444,12.135308159722221,0)" xlink:href="#bD"/><use transform="matrix(0.009874131944444444,0,0,0.009874131944444444,24.270616319444443,0)" xlink:href="#bc"/><use transform="matrix(0.009874131944444444,0,0,0.009874131944444444,36.405924479166664,0)" xlink:href="#bM"/><use transform="matrix(0.009874131944444444,0,0,0.009874131944444444,48.541232638888886,0)" xlink:href="#aZ"/><use transform="matrix(0.009874131944444444,0,0,0.009874131944444444,60.67654079861111,0)" xlink:href="#bc"/><use transform="matrix(0.009874131944444444,0,0,0.009874131944444444,72.81184895833333,0)" xlink:href="#bF"/><use transform="matrix(0.009874131944444444,0,0,0.009874131944444444,84.94715711805553,0)" xlink:href="#bI"/><use transform="matrix(0.009874131944444444,0,0,0.009874131944444444,97.08246527777777,0)" xlink:href="#bJ"/><use transform="matrix(0.009874131944444444,0,0,0.009874131944444444,109.2177734375,0)" xlink:href="#bJ"/></g><path d="M794-190h353V0H118v-190h395v-1104H223v-190h571v1294" id="bN"/><path d="M143 212c82 12 185 12 233-31 50-45 83-117 110-192L38-1082h297c100 284 211 557 291 861 72-305 176-578 270-861h294L742 57c-80 192-156 368-417 368-60 0-131-4-182-13V212" id="bO"/><g id="H"><use transform="matrix(0.0087890625,0,0,0.0087890625,0,0)" xlink:href="#bq"/><use transform="matrix(0.0087890625,0,0,0.0087890625,10.8017578125,0)" xlink:href="#bN"/><use transform="matrix(0.0087890625,0,0,0.0087890625,21.603515625,0)" xlink:href="#br"/><use transform="matrix(0.0087890625,0,0,0.0087890625,32.4052734375,0)" xlink:href="#bO"/></g><path d="M872-915c-35-112-84-223-220-223-91 0-156 41-204 116-89 137-87 550 2 688 51 79 116 122 209 122 150 0 197-126 240-244l273 52C1094-168 961 20 656 20 239 20 80-262 80-681c0-418 154-689 568-689 289 0 425 167 496 389" id="bP"/><path d="M1109-360C1066-122 902 20 624 20c-347 0-514-209-514-555 0-353 168-567 518-567 270 0 425 136 473 361l-283 14c-16-106-75-183-196-182-75 0-130 31-165 93s-52 152-52 270c0 249 74 374 221 374 120 0 188-82 201-201" id="bQ"/><g id="I"><use transform="matrix(0.0087890625,0,0,0.0087890625,0,0)" xlink:href="#bP"/><use transform="matrix(0.0087890625,0,0,0.0087890625,10.8017578125,0)" xlink:href="#bl"/><use transform="matrix(0.0087890625,0,0,0.0087890625,21.603515625,0)" xlink:href="#bN"/><use transform="matrix(0.0087890625,0,0,0.0087890625,32.4052734375,0)" xlink:href="#bN"/><use transform="matrix(0.0087890625,0,0,0.0087890625,43.20703125,0)" xlink:href="#bp"/><use transform="matrix(0.0087890625,0,0,0.0087890625,54.0087890625,0)" xlink:href="#bQ"/><use transform="matrix(0.0087890625,0,0,0.0087890625,64.810546875,0)" xlink:href="#bB"/></g><path d="M462-1121v384h621v228H462V0H167v-1349h939v228H462" id="bR"/><path d="M471 20c-247 0-336-169-336-415v-687h281v607c4 148 31 285 172 285 152 0 207-150 207-312v-580h281c4 359-9 736 8 1082H816c-7-63-11-146-12-215h-5C736-76 644 20 471 20" id="bS"/><g id="J"><use transform="matrix(0.0087890625,0,0,0.0087890625,0,0)" xlink:href="#bR"/><use transform="matrix(0.0087890625,0,0,0.0087890625,10.8017578125,0)" xlink:href="#bL"/><use transform="matrix(0.0087890625,0,0,0.0087890625,21.603515625,0)" xlink:href="#bS"/><use transform="matrix(0.0087890625,0,0,0.0087890625,32.4052734375,0)" xlink:href="#bz"/><use transform="matrix(0.0087890625,0,0,0.0087890625,43.20703125,0)" xlink:href="#bB"/><use transform="matrix(0.0087890625,0,0,0.0087890625,54.0087890625,0)" xlink:href="#bA"/></g><g id="K"><use transform="matrix(0.0087890625,0,0,0.0087890625,0,0)" xlink:href="#bP"/><use transform="matrix(0.0087890625,0,0,0.0087890625,10.8017578125,0)" xlink:href="#bl"/><use transform="matrix(0.0087890625,0,0,0.0087890625,21.603515625,0)" xlink:href="#bN"/><use transform="matrix(0.0087890625,0,0,0.0087890625,32.4052734375,0)" xlink:href="#bl"/><use transform="matrix(0.0087890625,0,0,0.0087890625,43.20703125,0)" xlink:href="#bL"/></g><path d="M844-1321c-130 0-195 53-191 182v57h443v190H653V0H373v-892H117v-190h256v-83c5-247 162-348 422-349 120-1 232 13 327 28v184c-84-10-183-19-278-19" id="bT"/><g id="L"><use transform="matrix(0.0087890625,0,0,0.0087890625,0,0)" xlink:href="#bj"/><use transform="matrix(0.0087890625,0,0,0.0087890625,10.8017578125,0)" xlink:href="#bk"/><use transform="matrix(0.0087890625,0,0,0.0087890625,21.603515625,0)" xlink:href="#bS"/><use transform="matrix(0.0087890625,0,0,0.0087890625,32.4052734375,0)" xlink:href="#bT"/><use transform="matrix(0.0087890625,0,0,0.0087890625,43.20703125,0)" xlink:href="#bT"/><use transform="matrix(0.0087890625,0,0,0.0087890625,54.0087890625,0)" xlink:href="#bN"/><use transform="matrix(0.0087890625,0,0,0.0087890625,64.810546875,0)" xlink:href="#bp"/><use transform="matrix(0.0087890625,0,0,0.0087890625,75.6123046875,0)" xlink:href="#bL"/></g><g id="M"><use transform="matrix(0.0087890625,0,0,0.0087890625,0,0)" xlink:href="#bD"/><use transform="matrix(0.0087890625,0,0,0.0087890625,10.8017578125,0)" xlink:href="#bD"/><use transform="matrix(0.0087890625,0,0,0.0087890625,21.603515625,0)" xlink:href="#bc"/><use transform="matrix(0.0087890625,0,0,0.0087890625,32.4052734375,0)" xlink:href="#bM"/><use transform="matrix(0.0087890625,0,0,0.0087890625,43.20703125,0)" xlink:href="#aZ"/><use transform="matrix(0.0087890625,0,0,0.0087890625,54.0087890625,0)" xlink:href="#bc"/><use transform="matrix(0.0087890625,0,0,0.0087890625,64.810546875,0)" xlink:href="#bF"/><use transform="matrix(0.0087890625,0,0,0.0087890625,75.6123046875,0)" xlink:href="#bI"/><use transform="matrix(0.0087890625,0,0,0.0087890625,86.4140625,0)" xlink:href="#bJ"/><use transform="matrix(0.0087890625,0,0,0.0087890625,97.2158203125,0)" xlink:href="#bJ"/></g><path d="M1019-446c-6 296-159 466-455 466-288 0-421-169-462-422l291-43c13 79 35 137 65 176s66 58 108 58c112 0 159-101 159-228v-679H424v-231h595v903" id="bU"/><path d="M427-171c3 195 2 397 2 596H148V-846c1-83-4-168-8-236h272c10 49 14 118 15 176h4c59-114 151-197 316-197 291 0 385 259 385 560 0 243-65 433-220 521-50 28-109 42-176 42-162-2-253-78-309-191zm69-661c-91 113-92 463-1 586 46 62 145 101 225 54 96-57 118-191 119-351 0-123-18-215-53-276-46-82-128-115-220-74-25 12-48 33-70 61" id="bV"/><g id="N"><use transform="matrix(0.0087890625,0,0,0.0087890625,0,0)" xlink:href="#bU"/><use transform="matrix(0.0087890625,0,0,0.0087890625,10.8017578125,0)" xlink:href="#bS"/><use transform="matrix(0.0087890625,0,0,0.0087890625,21.603515625,0)" xlink:href="#bo"/><use transform="matrix(0.0087890625,0,0,0.0087890625,32.4052734375,0)" xlink:href="#bV"/></g><g id="O"><use transform="matrix(0.0087890625,0,0,0.0087890625,0,0)" xlink:href="#bP"/><use transform="matrix(0.0087890625,0,0,0.0087890625,10.8017578125,0)" xlink:href="#bl"/><use transform="matrix(0.0087890625,0,0,0.0087890625,21.603515625,0)" xlink:href="#bN"/><use transform="matrix(0.0087890625,0,0,0.0087890625,32.4052734375,0)" xlink:href="#bN"/><use transform="matrix(0.0087890625,0,0,0.0087890625,43.20703125,0)" xlink:href="#bz"/><use transform="matrix(0.0087890625,0,0,0.0087890625,54.0087890625,0)" xlink:href="#bw"/><use transform="matrix(0.0087890625,0,0,0.0087890625,64.810546875,0)" xlink:href="#bp"/></g><g id="P"><use transform="matrix(0.0087890625,0,0,0.0087890625,0,0)" xlink:href="#bD"/><use transform="matrix(0.0087890625,0,0,0.0087890625,10.8017578125,0)" xlink:href="#bD"/><use transform="matrix(0.0087890625,0,0,0.0087890625,21.603515625,0)" xlink:href="#bc"/><use transform="matrix(0.0087890625,0,0,0.0087890625,32.4052734375,0)" xlink:href="#bM"/><use transform="matrix(0.0087890625,0,0,0.0087890625,43.20703125,0)" xlink:href="#aZ"/><use transform="matrix(0.0087890625,0,0,0.0087890625,54.0087890625,0)" xlink:href="#bc"/><use transform="matrix(0.0087890625,0,0,0.0087890625,64.810546875,0)" xlink:href="#bF"/><use transform="matrix(0.0087890625,0,0,0.0087890625,75.6123046875,0)" xlink:href="#bI"/><use transform="matrix(0.0087890625,0,0,0.0087890625,86.4140625,0)" xlink:href="#bJ"/><use transform="matrix(0.0087890625,0,0,0.0087890625,97.2158203125,0)" xlink:href="#bJ"/></g><g id="Q"><use transform="matrix(0.0087890625,0,0,0.0087890625,0,0)" xlink:href="#bu"/><use transform="matrix(0.0087890625,0,0,0.0087890625,10.8017578125,0)" xlink:href="#br"/><use transform="matrix(0.0087890625,0,0,0.0087890625,21.603515625,0)" xlink:href="#bz"/><use transform="matrix(0.0087890625,0,0,0.0087890625,32.4052734375,0)" xlink:href="#bC"/></g><g id="R"><use transform="matrix(0.0087890625,0,0,0.0087890625,0,0)" xlink:href="#bx"/><use transform="matrix(0.0087890625,0,0,0.0087890625,10.8017578125,0)" xlink:href="#by"/><use transform="matrix(0.0087890625,0,0,0.0087890625,21.603515625,0)" xlink:href="#bB"/><use transform="matrix(0.0087890625,0,0,0.0087890625,32.4052734375,0)" xlink:href="#bL"/><use transform="matrix(0.0087890625,0,0,0.0087890625,43.20703125,0)" xlink:href="#br"/></g><g id="S"><use transform="matrix(0.0087890625,0,0,0.0087890625,0,0)" xlink:href="#bv"/><use transform="matrix(0.0087890625,0,0,0.0087890625,10.8017578125,0)" xlink:href="#bz"/><use transform="matrix(0.0087890625,0,0,0.0087890625,21.603515625,0)" xlink:href="#bT"/><use transform="matrix(0.0087890625,0,0,0.0087890625,32.4052734375,0)" xlink:href="#bp"/></g><path d="M959-262c59 58 164 96 262 56v196c-22 13-62 21-95 21-136-2-224-53-300-115C735-36 625 19 467 19 193 19 24-102 24-369c0-221 148-330 302-410-35-71-71-170-71-267 0-214 138-311 361-311 198 0 337 89 337 284 0 164-121 237-231 303-43 26-88 47-134 68 64 112 131 207 214 302 50-98 85-203 108-324l204 27c-29 159-84 311-155 435zM267-373c0 134 74 207 210 210 82 2 151-41 194-76-98-109-188-228-262-360-74 46-142 109-142 226zm347-822c-133 0-177 123-136 245 11 32 22 62 37 91 79-39 165-72 206-145 48-85 0-191-107-191" id="bW"/><use transform="matrix(0.0087890625,0,0,0.0087890625,0,0)" xlink:href="#bW" id="T"/><path d="M1157-949c0 209-118 316-279 368L1227 0H895L605-515H432V0H137v-1349h494c317-2 526 111 526 400zM608-744c158 1 248-51 252-193 5-207-223-184-428-183v376h176" id="bX"/><g id="U"><use transform="matrix(0.0087890625,0,0,0.0087890625,0,0)" xlink:href="#bX"/><use transform="matrix(0.0087890625,0,0,0.0087890625,10.8017578125,0)" xlink:href="#bp"/><use transform="matrix(0.0087890625,0,0,0.0087890625,21.603515625,0)" xlink:href="#bA"/><use transform="matrix(0.0087890625,0,0,0.0087890625,32.4052734375,0)" xlink:href="#bS"/><use transform="matrix(0.0087890625,0,0,0.0087890625,43.20703125,0)" xlink:href="#bo"/><use transform="matrix(0.0087890625,0,0,0.0087890625,54.0087890625,0)" xlink:href="#bp"/></g><g id="V"><use transform="matrix(0.0087890625,0,0,0.0087890625,0,0)" xlink:href="#bj"/><use transform="matrix(0.0087890625,0,0,0.0087890625,10.8017578125,0)" xlink:href="#bk"/><use transform="matrix(0.0087890625,0,0,0.0087890625,21.603515625,0)" xlink:href="#bl"/><use transform="matrix(0.0087890625,0,0,0.0087890625,32.4052734375,0)" xlink:href="#bm"/></g><path d="M305-1169c27 366 9 780 14 1169H99v-1349h347c49 189 108 371 150 564 12 56 15 107 23 166 33-270 117-487 176-730h335V0H908c5-390-13-801 16-1169-52 285-130 541-199 809H507c-70-267-148-525-202-809" id="bY"/><g id="W"><use transform="matrix(0.0087890625,0,0,0.0087890625,0,0)" xlink:href="#bY"/><use transform="matrix(0.0087890625,0,0,0.0087890625,10.8017578125,0)" xlink:href="#bp"/><use transform="matrix(0.0087890625,0,0,0.0087890625,21.603515625,0)" xlink:href="#bC"/><use transform="matrix(0.0087890625,0,0,0.0087890625,32.4052734375,0)" xlink:href="#bS"/></g><g id="X"><use transform="matrix(0.0087890625,0,0,0.0087890625,0,0)" xlink:href="#bX"/><use transform="matrix(0.0087890625,0,0,0.0087890625,10.8017578125,0)" xlink:href="#bp"/><use transform="matrix(0.0087890625,0,0,0.0087890625,21.603515625,0)" xlink:href="#bA"/><use transform="matrix(0.0087890625,0,0,0.0087890625,32.4052734375,0)" xlink:href="#bB"/><use transform="matrix(0.0087890625,0,0,0.0087890625,43.20703125,0)" xlink:href="#br"/><use transform="matrix(0.0087890625,0,0,0.0087890625,54.0087890625,0)" xlink:href="#bL"/><use transform="matrix(0.0087890625,0,0,0.0087890625,64.810546875,0)" xlink:href="#bB"/></g><g id="Y"><use transform="matrix(0.0087890625,0,0,0.0087890625,0,0)" xlink:href="#bX"/><use transform="matrix(0.0087890625,0,0,0.0087890625,10.8017578125,0)" xlink:href="#bp"/><use transform="matrix(0.0087890625,0,0,0.0087890625,21.603515625,0)" xlink:href="#bB"/><use transform="matrix(0.0087890625,0,0,0.0087890625,32.4052734375,0)" xlink:href="#bS"/><use transform="matrix(0.0087890625,0,0,0.0087890625,43.20703125,0)" xlink:href="#bL"/><use transform="matrix(0.0087890625,0,0,0.0087890625,54.0087890625,0)" xlink:href="#bC"/></g><g id="Z"><use transform="matrix(0.0087890625,0,0,0.0087890625,0,0)" xlink:href="#bB"/><use transform="matrix(0.0087890625,0,0,0.0087890625,10.8017578125,0)" xlink:href="#bl"/></g><g id="aa"><use transform="matrix(0.0087890625,0,0,0.0087890625,0,0)" xlink:href="#bs"/><use transform="matrix(0.0087890625,0,0,0.0087890625,10.8017578125,0)" xlink:href="#br"/><use transform="matrix(0.0087890625,0,0,0.0087890625,21.603515625,0)" xlink:href="#bo"/><use transform="matrix(0.0087890625,0,0,0.0087890625,32.4052734375,0)" xlink:href="#bp"/></g><g id="ab"><use transform="matrix(0.0087890625,0,0,0.0087890625,0,0)" xlink:href="#bq"/><use transform="matrix(0.0087890625,0,0,0.0087890625,10.8017578125,0)" xlink:href="#bL"/><use transform="matrix(0.0087890625,0,0,0.0087890625,21.603515625,0)" xlink:href="#bl"/><use transform="matrix(0.0087890625,0,0,0.0087890625,32.4052734375,0)" xlink:href="#bs"/><use transform="matrix(0.0087890625,0,0,0.0087890625,43.20703125,0)" xlink:href="#bL"/><use transform="matrix(0.0087890625,0,0,0.0087890625,54.0087890625,0)" xlink:href="#bp"/><use transform="matrix(0.0087890625,0,0,0.0087890625,64.810546875,0)" xlink:href="#bA"/><use transform="matrix(0.0087890625,0,0,0.0087890625,75.6123046875,0)" xlink:href="#bA"/></g><g id="ac"><use transform="matrix(0.0087890625,0,0,0.0087890625,0,0)" xlink:href="#bD"/><use transform="matrix(0.0087890625,0,0,0.0087890625,10.8017578125,0)" xlink:href="#bD"/><use transform="matrix(0.0087890625,0,0,0.0087890625,21.603515625,0)" xlink:href="#bE"/><use transform="matrix(0.0087890625,0,0,0.0087890625,32.4052734375,0)" xlink:href="#bF"/><use transform="matrix(0.0087890625,0,0,0.0087890625,43.20703125,0)" xlink:href="#bG"/><use transform="matrix(0.0087890625,0,0,0.0087890625,54.0087890625,0)" xlink:href="#bg"/><use transform="matrix(0.0087890625,0,0,0.0087890625,64.810546875,0)" xlink:href="#bH"/><use transform="matrix(0.0087890625,0,0,0.0087890625,75.6123046875,0)" xlink:href="#bI"/><use transform="matrix(0.0087890625,0,0,0.0087890625,86.4140625,0)" xlink:href="#bc"/><use transform="matrix(0.0087890625,0,0,0.0087890625,97.2158203125,0)" xlink:href="#bJ"/><use transform="matrix(0.0087890625,0,0,0.0087890625,108.017578125,0)" xlink:href="#bJ"/></g><path fill="#333" d="M127-675c0-405 101-695 492-695 382 0 482 297 482 695 0 324-79 561-295 658-59 27-124 37-195 37-378 0-484-300-484-695zm580 451c143-96 121-451 101-680-12-138-46-246-191-246-149 0-184 107-199 248-19 180-21 469 36 598 29 67 72 101 159 103 37 0 69-6 94-23" id="bZ"/><path fill="#333" d="M470 0v-305h289V0H470" id="ca"/><path fill="#333" d="M138-1120c207-4 339-93 415-229h266v1140h323V0H149v-209h389v-891c-70 121-216 187-400 194v-214" id="cb"/><g id="ad"><use transform="matrix(0.0087890625,0,0,0.0087890625,0,0)" xlink:href="#bZ"/><use transform="matrix(0.0087890625,0,0,0.0087890625,10.8017578125,0)" xlink:href="#ca"/><use transform="matrix(0.0087890625,0,0,0.0087890625,21.603515625,0)" xlink:href="#ca"/><use transform="matrix(0.0087890625,0,0,0.0087890625,32.4052734375,0)" xlink:href="#cb"/></g><use transform="matrix(0.0087890625,0,0,0.0087890625,0,0)" xlink:href="#cb" id="ae"/><path fill="#333" d="M872-915c-35-112-84-223-220-223-91 0-156 41-204 116-89 137-87 550 2 688 51 79 116 122 209 122 150 0 197-126 240-244l273 52C1094-168 961 20 656 20 239 20 80-262 80-681c0-418 154-689 568-689 289 0 425 167 496 389" id="cc"/><g id="af"><use transform="matrix(0.0087890625,0,0,0.0087890625,0,0)" xlink:href="#cc"/><use transform="matrix(0.0087890625,0,0,0.0087890625,10.8017578125,0)" xlink:href="#bH"/><use transform="matrix(0.0087890625,0,0,0.0087890625,21.603515625,0)" xlink:href="#bi"/><use transform="matrix(0.0087890625,0,0,0.0087890625,32.4052734375,0)" xlink:href="#bi"/><use transform="matrix(0.0087890625,0,0,0.0087890625,43.20703125,0)" xlink:href="#bc"/><use transform="matrix(0.0087890625,0,0,0.0087890625,54.0087890625,0)" xlink:href="#bF"/><use transform="matrix(0.0087890625,0,0,0.0087890625,64.810546875,0)" xlink:href="#aZ"/></g><g id="ag"><use transform="matrix(0.0087890625,0,0,0.0087890625,0,0)" xlink:href="#bf"/><use transform="matrix(0.0087890625,0,0,0.0087890625,10.8017578125,0)" xlink:href="#bg"/><use transform="matrix(0.0087890625,0,0,0.0087890625,21.603515625,0)" xlink:href="#aY"/><use transform="matrix(0.0087890625,0,0,0.0087890625,32.4052734375,0)" xlink:href="#bh"/><use transform="matrix(0.0087890625,0,0,0.0087890625,43.20703125,0)" xlink:href="#bc"/><use transform="matrix(0.0087890625,0,0,0.0087890625,54.0087890625,0)" xlink:href="#bi"/></g><path fill="#333" d="M27 0v-27h64v-190l-56 39v-29l58-41h29v221h61V0H27" id="cd"/><use transform="matrix(0.05,0,0,0.05,0,0)" xlink:href="#cd" id="ah"/><path fill="#333" d="M762-1121V0H467v-1121H61v-228h1107v228H762" id="ce"/><path fill="#333" d="M934-1102c199 0 220 177 220 381V0H926c-2-260 10-533-4-785-4-72-14-138-83-138-34 0-61 27-81 81s-29 134-29 241V0H501c-2-260 9-533-5-785-4-72-13-138-82-138-46 0-65 47-80 93-21 67-30 155-30 248V0H75c-3-360 6-732-6-1082h209c6 50 3 123 8 175 36-100 83-195 216-195 135 0 166 79 196 196 42-105 93-196 236-196" id="cf"/><g id="ai"><use transform="matrix(0.0087890625,0,0,0.0087890625,0,0)" xlink:href="#ce"/><use transform="matrix(0.0087890625,0,0,0.0087890625,10.8017578125,0)" xlink:href="#bE"/><use transform="matrix(0.0087890625,0,0,0.0087890625,21.603515625,0)" xlink:href="#cf"/><use transform="matrix(0.0087890625,0,0,0.0087890625,32.4052734375,0)" xlink:href="#bc"/><use transform="matrix(0.0087890625,0,0,0.0087890625,43.20703125,0)" xlink:href="#bi"/></g></defs></g></svg>